<svg width="1280" height="570" viewBox="0 0 1280 570" fill="none" xmlns="http://www.w3.org/2000/svg">
<path d="M508.863 473.169C508.863 469.003 516.397 459.5 516.397 459.5C516.397 459.5 523.931 469.013 523.931 473.169C523.931 477.335 516.397 486.838 516.397 486.838C516.397 486.838 508.863 477.325 508.863 473.169Z" fill="#004D30"/>
<path d="M519.135 473.169C519.135 476.586 517.933 481.757 516.486 486.73C517.313 485.676 523.931 477.069 523.931 473.169C523.931 469.269 517.313 460.662 516.486 459.608C517.924 464.582 519.135 469.752 519.135 473.169Z" fill="#718C4B"/>
<path d="M529.131 490.905H503.673V494.5H529.131V490.905Z" fill="#004D30"/>
<path d="M779.994 91.4526H777.305V110.5H779.994V91.4526Z" fill="#004D30"/>
<path d="M789.374 104.554C791.275 103.456 793.626 97.5168 793.626 97.5168C793.626 97.5168 787.304 96.581 785.403 97.6789C783.502 98.7768 781.151 104.716 781.151 104.716C781.151 104.716 787.473 105.652 789.374 104.554Z" fill="#004D30"/>
<path d="M767.925 104.554C769.826 105.652 776.148 104.716 776.148 104.716C776.148 104.716 773.798 98.7768 771.897 97.6789C769.996 96.581 763.673 97.5168 763.673 97.5168C763.673 97.5168 766.024 103.456 767.925 104.554Z" fill="#004D30"/>
<path d="M780.215 77.4969C781.822 79.8253 784.187 83.5905 784.158 85.6169C784.113 88.6748 778.469 95.579 778.469 95.579C778.469 95.579 773.039 88.5053 773.083 85.4474C773.112 83.5537 775.301 80.1716 776.951 77.8874L778.86 89.8832L780.223 77.4895L780.215 77.4969Z" fill="#004D30"/>
<path d="M778.779 75.5C778.779 75.5 779.405 76.3032 780.23 77.4968L778.838 90.2295L778.241 90.2147L776.951 77.8874C777.961 76.4947 778.771 75.5 778.771 75.5H778.779Z" fill="#9EA267"/>
<path d="M518.167 87.591H515.481V110.5H518.167V87.591Z" fill="#004D30"/>
<path d="M527.535 104.561C529.434 103.465 531.781 97.5332 531.781 97.5332C531.781 97.5332 525.467 96.5986 523.568 97.6951C521.67 98.7916 519.322 104.723 519.322 104.723C519.322 104.723 525.636 105.658 527.535 104.561Z" fill="#004D30"/>
<path d="M506.113 104.561C508.011 105.658 514.325 104.723 514.325 104.723C514.325 104.723 511.978 98.7916 510.079 97.6951C508.181 96.5986 501.866 97.5332 501.866 97.5332C501.866 97.5332 504.214 103.465 506.113 104.561Z" fill="#004D30"/>
<path d="M508.983 84.6548C511.816 84.6548 518.292 89.1144 518.292 89.1144C518.292 89.1144 511.816 93.574 508.983 93.574C506.149 93.574 499.673 89.1144 499.673 89.1144C499.673 89.1144 506.149 84.6548 508.983 84.6548Z" fill="#E9B219"/>
<path d="M524.444 84.6548C527.277 84.6548 533.754 89.1144 533.754 89.1144C533.754 89.1144 527.277 93.574 524.444 93.574C521.611 93.574 515.135 89.1144 515.135 89.1144C515.135 89.1144 521.611 84.6548 524.444 84.6548Z" fill="#E9B219"/>
<path d="M522.597 78.3627C522.597 78.3627 521.309 78.8778 519.94 79.5769C518.851 77.7077 516.776 75.5 516.776 75.5C516.776 75.5 514.73 77.6709 513.634 79.5328C512.302 78.8484 511.058 78.3627 511.058 78.3627C511.058 78.3627 510.3 83.4773 511.19 85.0153C511.993 86.4062 515.996 88.0914 516.754 88.4005C516.754 88.4373 516.761 88.452 516.761 88.452C516.761 88.452 516.783 88.4447 516.828 88.43C516.864 88.4447 516.894 88.452 516.894 88.452C516.894 88.452 516.894 88.43 516.901 88.4005C517.659 88.0914 521.662 86.4062 522.465 85.0153C523.355 83.4773 522.597 78.3627 522.597 78.3627Z" fill="#C9831C"/>
<path d="M233.088 445.372H230.398V465.5H233.088V445.372Z" fill="#004D30"/>
<path d="M231.747 437.479C231.747 427.11 223.743 429.077 228.637 438.246C223.743 429.077 217.574 434.546 226.234 440.368C217.574 434.546 214.648 442.248 225.099 443.368C214.648 442.255 215.643 450.436 225.482 446.552C215.643 450.436 220.323 457.223 227.303 449.19C220.323 457.223 227.62 461.049 230.14 450.679C227.62 461.049 235.867 461.049 233.346 450.679C235.867 461.049 243.163 457.223 236.184 449.19C243.163 457.223 247.843 450.436 238.004 446.552C247.843 450.436 248.838 442.255 238.387 443.368C248.838 442.255 245.912 434.546 237.252 440.368C245.912 434.546 239.743 429.077 234.85 438.246C239.743 429.077 231.74 427.11 231.74 437.479H231.747Z" fill="#FF5319"/>
<path d="M231.747 448.623C234.039 448.623 235.896 446.765 235.896 444.473C235.896 442.182 234.039 440.324 231.747 440.324C229.455 440.324 227.598 442.182 227.598 444.473C227.598 446.765 229.455 448.623 231.747 448.623Z" fill="#D13819"/>
<path d="M944.019 368.385C945.067 367.338 945.563 363.039 945.563 363.039C945.563 363.039 941.265 363.536 940.217 364.583C939.17 365.631 938.673 369.929 938.673 369.929C938.673 369.929 942.972 369.433 944.019 368.385Z" fill="#004D30"/>
<path d="M963.771 368.385C962.723 367.338 962.227 363.039 962.227 363.039C962.227 363.039 966.525 363.536 967.573 364.583C968.62 365.631 969.116 369.929 969.116 369.929C969.116 369.929 964.818 369.433 963.771 368.385Z" fill="#004D30"/>
<path d="M956.581 343.37C956.581 344.853 953.895 348.24 953.895 348.24C953.895 348.24 951.208 344.853 951.208 343.37C951.208 341.887 953.895 338.5 953.895 338.5C953.895 338.5 956.581 341.887 956.581 343.37Z" fill="#004D30"/>
<path d="M947.563 351.47C949.46 348.185 946.243 346.546 946.243 346.546C946.243 346.546 943.033 348.185 944.924 351.47C943.115 348.335 940.122 349.96 940.122 349.96C940.122 349.96 939.646 353.749 943.611 353.749C939.857 353.749 939.986 357.313 939.986 357.313C939.986 357.313 943.019 359.346 944.931 356.027C943.033 359.312 946.25 360.951 946.25 360.951C946.25 360.951 949.46 359.312 947.57 356.027C949.494 359.367 952.535 357.279 952.535 357.279C952.535 357.279 952.616 353.742 948.889 353.742C952.82 353.742 952.399 349.988 952.399 349.988C952.399 349.988 949.392 348.301 947.57 351.463L947.563 351.47Z" fill="#FF5319"/>
<path d="M946.25 355.823C947.392 355.823 948.318 354.897 948.318 353.756C948.318 352.614 947.392 351.688 946.25 351.688C945.108 351.688 944.182 352.614 944.182 353.756C944.182 354.897 945.108 355.823 946.25 355.823Z" fill="#D13819"/>
<path d="M963.016 351.273C964.913 347.988 961.696 346.349 961.696 346.349C961.696 346.349 958.486 347.988 960.377 351.273C958.568 348.138 955.575 349.763 955.575 349.763C955.575 349.763 955.099 353.552 959.064 353.552C955.31 353.552 955.439 357.115 955.439 357.115C955.439 357.115 958.472 359.149 960.384 355.83C958.486 359.115 961.703 360.754 961.703 360.754C961.703 360.754 964.913 359.115 963.022 355.83C964.947 359.169 967.987 357.081 967.987 357.081C967.987 357.081 968.069 353.545 964.342 353.545C968.273 353.545 967.851 349.79 967.851 349.79C967.851 349.79 964.845 348.104 963.022 351.266L963.016 351.273Z" fill="#FF5319"/>
<path d="M961.71 355.619C962.852 355.619 963.777 354.693 963.777 353.552C963.777 352.41 962.852 351.484 961.71 351.484C960.568 351.484 959.642 352.41 959.642 353.552C959.642 354.693 960.568 355.619 961.71 355.619Z" fill="#D13819"/>
<path d="M955.201 364.019C957.098 360.734 953.881 359.095 953.881 359.095C953.881 359.095 950.671 360.734 952.562 364.019C950.753 360.883 947.76 362.509 947.76 362.509C947.76 362.509 947.284 366.297 951.249 366.297C947.495 366.297 947.624 369.861 947.624 369.861C947.624 369.861 950.657 371.895 952.569 368.576C950.671 371.861 953.888 373.5 953.888 373.5C953.888 373.5 957.098 371.861 955.208 368.576C957.132 371.915 960.173 369.827 960.173 369.827C960.173 369.827 960.254 366.291 956.527 366.291C960.458 366.291 960.037 362.536 960.037 362.536C960.037 362.536 957.03 360.849 955.208 364.012L955.201 364.019Z" fill="#FF5319"/>
<path d="M953.895 368.365C955.037 368.365 955.963 367.439 955.963 366.297C955.963 365.155 955.037 364.23 953.895 364.23C952.753 364.23 951.827 365.155 951.827 366.297C951.827 367.439 952.753 368.365 953.895 368.365Z" fill="#D13819"/>
<path d="M1141.38 240.291H1138.62V269.497H1141.38V240.291Z" fill="#004D30"/>
<path d="M1131.54 251.21C1130.8 253.932 1128.26 253.103 1128.26 253.103C1128.26 253.103 1127.43 250.554 1130.15 249.823C1127.55 250.517 1126.83 248.088 1126.83 248.088C1126.83 248.088 1128.57 245.841 1130.65 247.93C1128.68 245.954 1130.62 244.152 1130.62 244.152C1130.62 244.152 1133.28 244.68 1132.55 247.425C1133.28 244.703 1135.83 245.532 1135.83 245.532C1135.83 245.532 1136.66 248.081 1133.93 248.812C1136.7 248.073 1137.2 250.765 1137.2 250.765C1137.2 250.765 1135.39 252.666 1133.43 250.705C1135.49 252.771 1133.3 254.521 1133.3 254.521C1133.3 254.521 1130.83 253.827 1131.54 251.21Z" fill="#7BABFF"/>
<path d="M1132.04 250.863C1132.89 250.863 1133.58 250.175 1133.58 249.325C1133.58 248.476 1132.89 247.787 1132.04 247.787C1131.19 247.787 1130.5 248.476 1130.5 249.325C1130.5 250.175 1131.19 250.863 1132.04 250.863Z" fill="#466DC6"/>
<path d="M1148.76 251.21C1149.49 253.932 1152.04 253.103 1152.04 253.103C1152.04 253.103 1152.87 250.554 1150.15 249.823C1152.74 250.517 1153.46 248.088 1153.46 248.088C1153.46 248.088 1151.72 245.841 1149.64 247.93C1151.62 245.954 1149.67 244.152 1149.67 244.152C1149.67 244.152 1147.01 244.68 1147.75 247.425C1147.02 244.703 1144.47 245.532 1144.47 245.532C1144.47 245.532 1143.64 248.081 1146.36 248.812C1143.59 248.073 1143.1 250.765 1143.1 250.765C1143.1 250.765 1144.91 252.666 1146.87 250.705C1144.8 252.771 1146.99 254.521 1146.99 254.521C1146.99 254.521 1149.46 253.827 1148.76 251.21Z" fill="#7BABFF"/>
<path d="M1148.25 250.863C1149.1 250.863 1149.78 250.175 1149.78 249.325C1149.78 248.476 1149.1 247.787 1148.25 247.787C1147.4 247.787 1146.71 248.476 1146.71 249.325C1146.71 250.175 1147.4 250.863 1148.25 250.863Z" fill="#466DC6"/>
<path d="M1140.98 241.551C1142.39 243.994 1140 245.208 1140 245.208C1140 245.208 1137.61 243.986 1139.02 241.551C1137.67 243.881 1135.44 242.674 1135.44 242.674C1135.44 242.674 1135.09 239.854 1138.04 239.854C1135.25 239.854 1135.34 237.207 1135.34 237.207C1135.34 237.207 1137.59 235.699 1139.02 238.157C1137.61 235.714 1140 234.5 1140 234.5C1140 234.5 1142.39 235.722 1140.98 238.157C1142.41 235.676 1144.66 237.23 1144.66 237.23C1144.66 237.23 1144.72 239.854 1141.96 239.854C1144.88 239.854 1144.57 242.644 1144.57 242.644C1144.57 242.644 1142.33 243.896 1140.98 241.551Z" fill="#7BABFF"/>
<path d="M1140 241.392C1140.85 241.392 1141.54 240.704 1141.54 239.854C1141.54 239.004 1140.85 238.316 1140 238.316C1139.15 238.316 1138.47 239.004 1138.47 239.854C1138.47 240.704 1139.15 241.392 1140 241.392Z" fill="#466DC6"/>
<path d="M1140.98 260.516C1142.39 262.959 1140 264.173 1140 264.173C1140 264.173 1137.61 262.951 1139.02 260.516C1137.67 262.846 1135.44 261.639 1135.44 261.639C1135.44 261.639 1135.09 258.819 1138.04 258.819C1135.25 258.819 1135.34 256.172 1135.34 256.172C1135.34 256.172 1137.59 254.664 1139.02 257.122C1137.61 254.679 1140 253.465 1140 253.465C1140 253.465 1142.39 254.687 1140.98 257.122C1142.41 254.641 1144.66 256.195 1144.66 256.195C1144.66 256.195 1144.72 258.819 1141.96 258.819C1144.88 258.819 1144.57 261.609 1144.57 261.609C1144.57 261.609 1142.33 262.861 1140.98 260.516Z" fill="#7BABFF"/>
<path d="M1140 260.357C1140.85 260.357 1141.54 259.668 1141.54 258.819C1141.54 257.969 1140.85 257.281 1140 257.281C1139.15 257.281 1138.47 257.969 1138.47 258.819C1138.47 259.668 1139.15 260.357 1140 260.357Z" fill="#466DC6"/>
<path d="M1150.98 268.954C1152.92 267.83 1155.33 261.752 1155.33 261.752C1155.33 261.752 1148.86 260.795 1146.91 261.918C1144.97 263.042 1142.56 269.12 1142.56 269.12C1142.56 269.12 1149.03 270.077 1150.98 268.954Z" fill="#004D30"/>
<path d="M1129.02 268.954C1130.97 270.077 1137.44 269.12 1137.44 269.12C1137.44 269.12 1135.03 263.042 1133.09 261.918C1131.14 260.795 1124.67 261.752 1124.67 261.752C1124.67 261.752 1127.08 267.83 1129.02 268.954Z" fill="#004D30"/>
<path d="M157.801 250.756C157.801 250.756 157.178 257.579 155.337 258.34C152.804 259.382 144.93 255.122 142.184 255.29C144.573 253.936 149.236 246.922 151.845 246.443C153.656 246.108 157.794 250.763 157.794 250.763L157.801 250.756Z" fill="#7BABFF"/>
<path d="M148.118 242.868C148.46 245.583 142.785 252.574 142.184 255.274C141.599 252.574 135.901 245.553 136.251 242.845C136.487 241.034 142.169 238.547 142.169 238.547C142.169 238.547 147.89 241.042 148.118 242.868Z" fill="#7BABFF"/>
<path d="M153.922 262.478C154.682 263.977 151.838 268.883 151.838 268.883C151.838 268.883 145.752 270.214 144.482 268.883C142.595 266.913 143.181 257.914 142.184 255.274C144.33 257.161 152.674 260.013 153.922 262.47V262.478Z" fill="#7BABFF"/>
<path d="M142.184 255.282C141.188 257.906 142.002 266.882 140.153 268.898C138.913 270.252 132.805 268.898 132.805 268.898C132.805 268.898 129.945 263.961 130.706 262.44C131.908 260.044 140.047 257.161 142.184 255.282Z" fill="#7BABFF"/>
<path d="M142.184 255.282C139.461 255.099 131.512 259.329 128.986 258.287C127.153 257.534 126.537 250.756 126.537 250.756C126.537 250.756 130.706 246.07 132.516 246.412C135.118 246.907 139.796 253.928 142.177 255.282H142.184Z" fill="#7BABFF"/>
<path d="M140.328 253.243C139.218 254.05 138.754 255.472 139.18 256.781C139.606 258.081 140.815 258.964 142.184 258.964C143.554 258.964 144.771 258.081 145.189 256.781C145.615 255.48 145.151 254.05 144.04 253.243C142.93 252.437 141.431 252.437 140.328 253.243Z" fill="#466DC6"/>
<path d="M131.398 236.447C130.082 235.131 124.673 234.5 124.673 234.5C124.673 234.5 125.297 239.901 126.621 241.224C127.944 242.548 133.345 243.172 133.345 243.172C133.345 243.172 132.721 237.771 131.398 236.447Z" fill="#004D30"/>
<path d="M152.294 236.638C153.739 235.192 159.673 234.508 159.673 234.508C159.673 234.508 158.988 240.433 157.543 241.886C156.097 243.332 150.164 244.016 150.164 244.016C150.164 244.016 150.849 238.09 152.294 236.638Z" fill="#004D30"/>
<path d="M766.146 469.845H763.596V494.497H766.146V469.845Z" fill="#004D30"/>
<path d="M775.045 493.994C776.848 492.953 779.076 487.323 779.076 487.323C779.076 487.323 773.083 486.436 771.28 487.477C769.478 488.517 767.25 494.148 767.25 494.148C767.25 494.148 773.243 495.035 775.045 493.994Z" fill="#004D30"/>
<path d="M771.93 483.327C773.027 482.692 774.389 479.255 774.389 479.255C774.389 479.255 770.728 478.717 769.632 479.346C768.535 479.974 767.173 483.418 767.173 483.418C767.173 483.418 770.833 483.956 771.93 483.327Z" fill="#7BABFF"/>
<path d="M771.93 476.579C773.027 475.944 774.389 472.507 774.389 472.507C774.389 472.507 770.728 471.969 769.632 472.598C768.535 473.226 767.173 476.67 767.173 476.67C767.173 476.67 770.833 477.208 771.93 476.579Z" fill="#7BABFF"/>
<path d="M771.93 469.831C773.027 469.196 774.389 465.759 774.389 465.759C774.389 465.759 770.728 465.221 769.632 465.85C768.535 466.478 767.173 469.922 767.173 469.922C767.173 469.922 770.833 470.46 771.93 469.831Z" fill="#7BABFF"/>
<path d="M754.704 493.994C756.506 495.035 762.5 494.148 762.5 494.148C762.5 494.148 760.271 488.517 758.469 487.477C756.667 486.436 750.673 487.323 750.673 487.323C750.673 487.323 752.902 492.953 754.704 493.994Z" fill="#004D30"/>
<path d="M757.82 483.327C756.723 482.692 755.361 479.255 755.361 479.255C755.361 479.255 759.021 478.717 760.118 479.346C761.214 479.974 762.577 483.418 762.577 483.418C762.577 483.418 758.916 483.956 757.82 483.327Z" fill="#7BABFF"/>
<path d="M757.82 476.579C756.723 475.944 755.361 472.507 755.361 472.507C755.361 472.507 759.021 471.969 760.118 472.598C761.214 473.226 762.577 476.67 762.577 476.67C762.577 476.67 758.916 477.208 757.82 476.579Z" fill="#7BABFF"/>
<path d="M757.82 469.831C756.723 469.196 755.361 465.759 755.361 465.759C755.361 465.759 759.021 465.221 760.118 465.85C761.214 466.478 762.577 469.922 762.577 469.922C762.577 469.922 758.916 470.46 757.82 469.831Z" fill="#7BABFF"/>
<path d="M767.173 463.67C767.173 464.942 764.875 467.841 764.875 467.841C764.875 467.841 762.577 464.942 762.577 463.67C762.577 462.399 764.875 459.5 764.875 459.5C764.875 459.5 767.173 462.399 767.173 463.67Z" fill="#7BABFF"/>
<path d="M353.419 354.537C344.728 365.026 349.635 369.169 353.314 371.102C353.853 371.387 354.505 371.395 355.052 371.117C358.881 369.207 363.646 365.131 354.782 354.529C354.82 354.47 353.366 354.477 353.419 354.529V354.537Z" fill="#E851B8"/>
<path d="M354.198 352.589C355.899 339.073 349.538 338.211 345.394 338.556C344.788 338.608 344.233 338.945 343.918 339.47C341.716 343.141 339.88 349.135 353.044 353.323C353.044 353.391 354.265 352.604 354.19 352.589H354.198Z" fill="#E851B8"/>
<path d="M353.172 353.278C340.892 347.389 338.06 353.143 337.071 357.182C336.928 357.774 337.071 358.403 337.475 358.868C340.255 362.119 345.365 365.753 353.501 354.597C353.569 354.619 353.209 353.211 353.172 353.278Z" fill="#E851B8"/>
<path d="M355.127 353.278C367.407 347.389 370.239 353.143 371.228 357.182C371.37 357.774 371.228 358.403 370.823 358.868C368.044 362.119 362.934 365.753 354.797 354.597C354.73 354.619 355.09 353.211 355.127 353.278Z" fill="#E851B8"/>
<path d="M354.161 352.589C352.46 339.073 358.821 338.211 362.964 338.556C363.571 338.608 364.125 338.945 364.44 339.47C366.643 343.141 368.478 349.135 355.314 353.323C355.314 353.391 354.093 352.604 354.168 352.589H354.161Z" fill="#E851B8"/>
<path d="M354.183 351.083L351.838 352.791L352.729 355.556H355.636L356.536 352.791L354.183 351.083Z" fill="#BA2F8B"/>
<path d="M354.198 358.875C354.968 358.875 355.592 358.251 355.592 357.481C355.592 356.712 354.968 356.088 354.198 356.088C353.428 356.088 352.804 356.712 352.804 357.481C352.804 358.251 353.428 358.875 354.198 358.875Z" fill="#BA2F8B"/>
<path d="M350.482 356.133C351.251 356.133 351.875 355.509 351.875 354.739C351.875 353.97 351.251 353.346 350.482 353.346C349.712 353.346 349.088 353.97 349.088 354.739C349.088 355.509 349.712 356.133 350.482 356.133Z" fill="#BA2F8B"/>
<path d="M357.892 356.133C358.661 356.133 359.285 355.509 359.285 354.739C359.285 353.97 358.661 353.346 357.892 353.346C357.122 353.346 356.498 353.97 356.498 354.739C356.498 355.509 357.122 356.133 357.892 356.133Z" fill="#BA2F8B"/>
<path d="M351.928 351.787C352.697 351.787 353.321 351.163 353.321 350.394C353.321 349.624 352.697 349 351.928 349C351.158 349 350.534 349.624 350.534 350.394C350.534 351.163 351.158 351.787 351.928 351.787Z" fill="#BA2F8B"/>
<path d="M356.498 351.787C357.268 351.787 357.892 351.163 357.892 350.394C357.892 349.624 357.268 349 356.498 349C355.728 349 355.105 349.624 355.105 350.394C355.105 351.163 355.728 351.787 356.498 351.787Z" fill="#BA2F8B"/>
<path d="M338.996 365.468C340.569 363.895 347.028 363.146 347.028 363.146C347.028 363.146 346.279 369.604 344.705 371.177C343.132 372.751 336.673 373.5 336.673 373.5C336.673 373.5 337.423 367.042 338.996 365.468Z" fill="#004D30"/>
<path d="M369.07 365.468C367.497 363.895 361.038 363.146 361.038 363.146C361.038 363.146 361.788 369.604 363.361 371.177C364.934 372.751 371.393 373.5 371.393 373.5C371.393 373.5 370.644 367.042 369.07 365.468Z" fill="#004D30"/>
<path d="M1017.81 177.953C1019.74 176.837 1022.13 170.799 1022.13 170.799C1022.13 170.799 1015.71 169.847 1013.77 170.964C1011.84 172.08 1009.45 178.118 1009.45 178.118C1009.45 178.118 1015.88 179.069 1017.81 177.953Z" fill="#004D30"/>
<path d="M991.996 177.953C993.929 179.069 1000.36 178.118 1000.36 178.118C1000.36 178.118 997.967 172.08 996.034 170.964C994.101 169.847 987.673 170.799 987.673 170.799C987.673 170.799 990.063 176.837 991.996 177.953Z" fill="#004D30"/>
<path d="M1006.27 158.041H1003.54V178.5H1006.27V158.041Z" fill="#004D30"/>
<path d="M1007.64 151.276C1005.78 153.134 1004.9 160.723 1004.9 160.723C1004.9 160.723 1012.5 159.846 1014.35 157.988C1016.21 156.131 1017.08 148.542 1017.08 148.542C1017.08 148.542 1009.49 149.418 1007.64 151.276Z" fill="#BA2F8B"/>
<path d="M1002.17 151.276C1004.03 153.134 1004.9 160.723 1004.9 160.723C1004.9 160.723 997.307 159.846 995.457 157.988C993.599 156.131 992.723 148.542 992.723 148.542C992.723 148.542 1000.32 149.418 1002.17 151.276Z" fill="#BA2F8B"/>
<path d="M1009.65 152.115C1009.65 154.737 1004.9 160.73 1004.9 160.73C1004.9 160.73 1000.15 154.737 1000.15 152.115C1000.15 149.493 1004.9 143.5 1004.9 143.5C1004.9 143.5 1009.65 149.493 1009.65 152.115Z" fill="#E851B8"/>
<path d="M996.289 155.981C998.911 155.981 1004.9 160.73 1004.9 160.73C1004.9 160.73 998.911 165.48 996.289 165.48C993.667 165.48 987.673 160.73 987.673 160.73C987.673 160.73 993.667 155.981 996.289 155.981Z" fill="#E851B8"/>
<path d="M1013.52 155.981C1010.9 155.981 1004.9 160.73 1004.9 160.73C1004.9 160.73 1010.9 165.48 1013.52 165.48C1016.14 165.48 1022.13 160.73 1022.13 160.73C1022.13 160.73 1016.14 155.981 1013.52 155.981Z" fill="#E851B8"/>
<path d="M307.957 158.423H305.273V178.5H307.957V158.423Z" fill="#004D30"/>
<path d="M312.154 152.079C312.154 154.689 306.538 160.658 306.538 160.658C306.538 160.658 300.921 154.689 300.921 152.079C300.921 149.469 306.538 143.5 306.538 143.5C306.538 143.5 312.154 149.469 312.154 152.079Z" fill="#BA2F8B"/>
<path d="M306.516 152.777C307.824 155.042 306.707 162.57 306.707 162.57C306.707 162.57 299.628 159.769 298.319 157.504C297.011 155.24 298.128 147.712 298.128 147.712C298.128 147.712 305.207 150.513 306.516 152.777Z" fill="#E851B8"/>
<path d="M306.722 152.777C305.413 155.042 306.531 162.57 306.531 162.57C306.531 162.57 313.61 159.769 314.918 157.504C316.227 155.24 315.11 147.712 315.11 147.712C315.11 147.712 308.03 150.513 306.722 152.777Z" fill="#E851B8"/>
<path d="M317.322 172.567C319.219 171.472 321.564 165.547 321.564 165.547C321.564 165.547 315.257 164.613 313.36 165.709C311.463 166.804 309.118 172.729 309.118 172.729C309.118 172.729 315.426 173.663 317.322 172.567Z" fill="#004D30"/>
<path d="M295.915 172.567C297.812 173.663 304.119 172.729 304.119 172.729C304.119 172.729 301.774 166.804 299.878 165.709C297.981 164.613 291.673 165.547 291.673 165.547C291.673 165.547 294.018 171.472 295.915 172.567Z" fill="#004D30"/>
<path d="M1061.3 447.753C1061.26 447.7 1061.22 447.655 1061.18 447.609C1077.04 429.4 1043.94 429.438 1060.03 447.738C1060 447.784 1059.96 447.829 1059.93 447.882C1041.52 431.661 1041.57 465.219 1060.07 448.755C1060.1 448.793 1060.14 448.816 1060.18 448.846C1043.68 467.382 1077.34 467.412 1061 448.945C1061.05 448.922 1061.1 448.892 1061.13 448.854C1079.49 465.052 1079.54 431.866 1061.31 447.761L1061.3 447.753Z" fill="#E9B219"/>
<path d="M1058.81 448.36C1059.71 448.36 1060.44 447.63 1060.44 446.729C1060.44 445.828 1059.71 445.098 1058.81 445.098C1057.91 445.098 1057.18 445.828 1057.18 446.729C1057.18 447.63 1057.91 448.36 1058.81 448.36Z" fill="#AD6F0B"/>
<path d="M1062.64 448.489C1063.54 448.489 1064.27 447.759 1064.27 446.858C1064.27 445.957 1063.54 445.227 1062.64 445.227C1061.73 445.227 1061 445.957 1061 446.858C1061 447.759 1061.73 448.489 1062.64 448.489Z" fill="#AD6F0B"/>
<path d="M1060.55 451.646C1061.45 451.646 1062.18 450.915 1062.18 450.014C1062.18 449.113 1061.45 448.383 1060.55 448.383C1059.65 448.383 1058.92 449.113 1058.92 450.014C1058.92 450.915 1059.65 451.646 1060.55 451.646Z" fill="#AD6F0B"/>
<path d="M1075.32 438.634C1073.73 440.227 1067.19 440.986 1067.19 440.986C1067.19 440.986 1067.95 434.445 1069.54 432.852C1071.13 431.259 1077.67 430.5 1077.67 430.5C1077.67 430.5 1076.91 437.04 1075.32 438.634Z" fill="#004D30"/>
<path d="M1045.03 438.634C1046.62 440.227 1053.16 440.986 1053.16 440.986C1053.16 440.986 1052.4 434.445 1050.81 432.852C1049.21 431.259 1042.67 430.5 1042.67 430.5C1042.67 430.5 1043.43 437.04 1045.03 438.634Z" fill="#004D30"/>
<path d="M1075.32 457.366C1073.73 455.773 1067.19 455.014 1067.19 455.014C1067.19 455.014 1067.95 461.555 1069.54 463.148C1071.13 464.741 1077.67 465.5 1077.67 465.5C1077.67 465.5 1076.91 458.96 1075.32 457.366Z" fill="#004D30"/>
<path d="M1045.03 457.366C1046.62 455.773 1053.16 455.014 1053.16 455.014C1053.16 455.014 1052.4 461.555 1050.81 463.148C1049.21 464.741 1042.67 465.5 1042.67 465.5C1042.67 465.5 1043.43 458.96 1045.03 457.366Z" fill="#004D30"/>
</svg>
