<svg width="317" height="621" viewBox="0 0 317 621" fill="none" xmlns="http://www.w3.org/2000/svg">
<path d="M15.9657 455.262C15.9332 455.218 15.9007 455.181 15.8617 455.143C29.4537 440.209 1.08603 440.24 14.8797 455.249C14.8472 455.286 14.8211 455.324 14.7951 455.367C-0.98854 442.063 -0.949519 469.586 14.9122 456.083C14.9382 456.114 14.9707 456.133 15.0097 456.158C0.86492 471.36 29.7139 471.385 15.7121 456.239C15.7511 456.22 15.7901 456.195 15.8227 456.164C31.5543 469.45 31.5998 442.231 15.9722 455.268L15.9657 455.262Z" fill="#E9B219"/>
<path d="M13.8328 455.759C14.605 455.759 15.231 455.16 15.231 454.421C15.231 453.683 14.605 453.084 13.8328 453.084C13.0606 453.084 12.4346 453.683 12.4346 454.421C12.4346 455.16 13.0606 455.759 13.8328 455.759Z" fill="#AD6F0B"/>
<path d="M17.1104 455.865C17.8826 455.865 18.5086 455.266 18.5086 454.527C18.5086 453.788 17.8826 453.189 17.1104 453.189C16.3382 453.189 15.7122 453.788 15.7122 454.527C15.7122 455.266 16.3382 455.865 17.1104 455.865Z" fill="#AD6F0B"/>
<path d="M15.3219 458.454C16.0941 458.454 16.7202 457.855 16.7202 457.116C16.7202 456.377 16.0941 455.778 15.3219 455.778C14.5497 455.778 13.9237 456.377 13.9237 457.116C13.9237 457.855 14.5497 458.454 15.3219 458.454Z" fill="#AD6F0B"/>
<path d="M27.9841 447.782C26.6184 449.088 21.0125 449.711 21.0125 449.711C21.0125 449.711 21.6628 444.347 23.0285 443.04C24.3942 441.733 30.0001 441.111 30.0001 441.111C30.0001 441.111 29.3498 446.475 27.9841 447.782Z" fill="#004D30"/>
<path d="M2.01604 447.782C3.38175 449.088 8.98765 449.711 8.98765 449.711C8.98765 449.711 8.33732 444.347 6.97161 443.04C5.6059 441.733 0 441.111 0 441.111C0 441.111 0.650337 446.475 2.01604 447.782Z" fill="#004D30"/>
<path d="M27.9841 463.146C26.6184 461.839 21.0125 461.217 21.0125 461.217C21.0125 461.217 21.6628 466.581 23.0285 467.888C24.3942 469.194 30.0001 469.817 30.0001 469.817C30.0001 469.817 29.3498 464.453 27.9841 463.146Z" fill="#004D30"/>
<path d="M2.01604 463.146C3.38175 461.839 8.98765 461.217 8.98765 461.217C8.98765 461.217 8.33732 466.581 6.97161 467.888C5.6059 469.194 0 469.817 0 469.817C0 469.817 0.650337 464.453 2.01604 463.146Z" fill="#004D30"/>
<path d="M301.353 450.436C293.904 459.039 298.11 462.437 301.263 464.023C301.726 464.256 302.284 464.262 302.753 464.035C306.035 462.468 310.119 459.125 302.522 450.43C302.554 450.381 301.308 450.387 301.353 450.43V450.436Z" fill="#E851B8"/>
<path d="M302.021 448.839C303.479 437.753 298.027 437.047 294.475 437.329C293.955 437.372 293.48 437.649 293.21 438.079C291.322 441.09 289.749 446.006 301.032 449.441C301.032 449.496 302.079 448.851 302.015 448.839H302.021Z" fill="#E851B8"/>
<path d="M301.141 449.404C290.615 444.574 288.188 449.293 287.34 452.606C287.218 453.091 287.34 453.607 287.687 453.988C290.07 456.655 294.449 459.635 301.424 450.486C301.481 450.504 301.173 449.349 301.141 449.404Z" fill="#E851B8"/>
<path d="M302.817 449.404C313.343 444.574 315.771 449.293 316.618 452.606C316.74 453.091 316.618 453.607 316.272 453.988C313.889 456.655 309.509 459.635 302.535 450.486C302.477 450.504 302.785 449.349 302.817 449.404Z" fill="#E851B8"/>
<path d="M301.989 448.839C300.531 437.753 305.984 437.047 309.535 437.329C310.055 437.372 310.53 437.649 310.8 438.079C312.688 441.09 314.261 446.006 302.978 449.441C302.978 449.496 301.931 448.851 301.995 448.839H301.989Z" fill="#E851B8"/>
<path d="M302.008 447.604L299.998 449.005L300.762 451.272H303.254L304.025 449.005L302.008 447.604Z" fill="#BA2F8B"/>
<path d="M302.021 453.994C302.681 453.994 303.215 453.483 303.215 452.851C303.215 452.22 302.681 451.708 302.021 451.708C301.361 451.708 300.826 452.22 300.826 452.851C300.826 453.483 301.361 453.994 302.021 453.994Z" fill="#BA2F8B"/>
<path d="M298.836 451.745C299.496 451.745 300.03 451.234 300.03 450.602C300.03 449.971 299.496 449.459 298.836 449.459C298.176 449.459 297.641 449.971 297.641 450.602C297.641 451.234 298.176 451.745 298.836 451.745Z" fill="#BA2F8B"/>
<path d="M305.187 451.745C305.847 451.745 306.382 451.234 306.382 450.602C306.382 449.971 305.847 449.459 305.187 449.459C304.527 449.459 303.993 449.971 303.993 450.602C303.993 451.234 304.527 451.745 305.187 451.745Z" fill="#BA2F8B"/>
<path d="M300.075 448.181C300.735 448.181 301.27 447.669 301.27 447.038C301.27 446.407 300.735 445.895 300.075 445.895C299.415 445.895 298.881 446.407 298.881 447.038C298.881 447.669 299.415 448.181 300.075 448.181Z" fill="#BA2F8B"/>
<path d="M303.993 448.181C304.652 448.181 305.187 447.669 305.187 447.038C305.187 446.407 304.652 445.895 303.993 445.895C303.333 445.895 302.798 446.407 302.798 447.038C302.798 447.669 303.333 448.181 303.993 448.181Z" fill="#BA2F8B"/>
<path d="M288.991 459.402C290.339 458.111 295.875 457.497 295.875 457.497C295.875 457.497 295.233 462.794 293.884 464.084C292.536 465.375 287 465.989 287 465.989C287 465.989 287.642 460.692 288.991 459.402Z" fill="#004D30"/>
<path d="M314.769 459.402C313.42 458.111 307.884 457.497 307.884 457.497C307.884 457.497 308.526 462.794 309.875 464.084C311.224 465.375 316.759 465.989 316.759 465.989C316.759 465.989 316.117 460.692 314.769 459.402Z" fill="#004D30"/>
<path d="M149.582 81.9223C150.48 81.0632 150.906 77.5377 150.906 77.5377C150.906 77.5377 147.221 77.945 146.323 78.804C145.426 79.6631 145 83.1885 145 83.1885C145 83.1885 148.684 82.7813 149.582 81.9223Z" fill="#004D30"/>
<path d="M166.512 81.9223C165.614 81.0632 165.188 77.5377 165.188 77.5377C165.188 77.5377 168.873 77.945 169.771 78.804C170.668 79.6631 171.094 83.1885 171.094 83.1885C171.094 83.1885 167.41 82.7813 166.512 81.9223Z" fill="#004D30"/>
<path d="M160.35 61.4054C160.35 62.6215 158.047 65.3995 158.047 65.3995C158.047 65.3995 155.744 62.6215 155.744 61.4054C155.744 60.1894 158.047 57.4114 158.047 57.4114C158.047 57.4114 160.35 60.1894 160.35 61.4054Z" fill="#004D30"/>
<path d="M152.619 68.0491C154.246 65.3549 151.488 64.0105 151.488 64.0105C151.488 64.0105 148.737 65.3549 150.358 68.0491C148.807 65.4776 146.242 66.8108 146.242 66.8108C146.242 66.8108 145.834 69.9179 149.232 69.9179C146.014 69.9179 146.125 72.8409 146.125 72.8409C146.125 72.8409 148.725 74.5088 150.363 71.7866C148.737 74.4809 151.494 75.8252 151.494 75.8252C151.494 75.8252 154.246 74.4809 152.625 71.7866C154.275 74.5255 156.881 72.813 156.881 72.813C156.881 72.813 156.951 69.9123 153.756 69.9123C157.126 69.9123 156.764 66.8331 156.764 66.8331C156.764 66.8331 154.188 65.4497 152.625 68.0436L152.619 68.0491Z" fill="#FF5319"/>
<path d="M151.494 71.6192C152.473 71.6192 153.267 70.86 153.267 69.9234C153.267 68.9869 152.473 68.2276 151.494 68.2276C150.516 68.2276 149.722 68.9869 149.722 69.9234C149.722 70.86 150.516 71.6192 151.494 71.6192Z" fill="#D13819"/>
<path d="M165.865 67.8874C167.491 65.1931 164.734 63.8487 164.734 63.8487C164.734 63.8487 161.982 65.1931 163.603 67.8874C162.052 65.3158 159.487 66.649 159.487 66.649C159.487 66.649 159.079 69.7561 162.478 69.7561C159.26 69.7561 159.37 72.6791 159.37 72.6791C159.37 72.6791 161.97 74.347 163.609 71.6248C161.982 74.3191 164.74 75.6635 164.74 75.6635C164.74 75.6635 167.491 74.3191 165.871 71.6248C167.52 74.3637 170.126 72.6512 170.126 72.6512C170.126 72.6512 170.196 69.7505 167.001 69.7505C170.371 69.7505 170.01 66.6713 170.01 66.6713C170.01 66.6713 167.433 65.2879 165.871 67.8818L165.865 67.8874Z" fill="#FF5319"/>
<path d="M164.746 71.4519C165.724 71.4519 166.518 70.6927 166.518 69.7561C166.518 68.8195 165.724 68.0603 164.746 68.0603C163.767 68.0603 162.973 68.8195 162.973 69.7561C162.973 70.6927 163.767 71.4519 164.746 71.4519Z" fill="#D13819"/>
<path d="M159.166 78.341C160.793 75.6467 158.035 74.3024 158.035 74.3024C158.035 74.3024 155.284 75.6467 156.905 78.341C155.354 75.7694 152.789 77.1026 152.789 77.1026C152.789 77.1026 152.381 80.2097 155.779 80.2097C152.561 80.2097 152.672 83.1327 152.672 83.1327C152.672 83.1327 155.272 84.8006 156.91 82.0785C155.284 84.7727 158.041 86.1171 158.041 86.1171C158.041 86.1171 160.793 84.7727 159.172 82.0785C160.822 84.8174 163.428 83.1048 163.428 83.1048C163.428 83.1048 163.498 80.2041 160.303 80.2041C163.673 80.2041 163.311 77.125 163.311 77.125C163.311 77.125 160.735 75.7415 159.172 78.3354L159.166 78.341Z" fill="#FF5319"/>
<path d="M158.047 81.9055C159.026 81.9055 159.819 81.1463 159.819 80.2097C159.819 79.2732 159.026 78.5139 158.047 78.5139C157.068 78.5139 156.275 79.2732 156.275 80.2097C156.275 81.1463 157.068 81.9055 158.047 81.9055Z" fill="#D13819"/>
<path d="M69.3167 124.357H66.9575V148.31H69.3167V124.357Z" fill="#004D30"/>
<path d="M60.8819 133.312C60.2549 135.545 58.0702 134.865 58.0702 134.865C58.0702 134.865 57.3592 132.774 59.6926 132.174C57.4691 132.743 56.8486 130.752 56.8486 130.752C56.8486 130.752 58.3417 128.909 60.1256 130.622C58.4322 129.002 60.0998 127.523 60.0998 127.523C60.0998 127.523 62.3814 127.956 61.748 130.208C62.3749 127.975 64.5596 128.655 64.5596 128.655C64.5596 128.655 65.2706 130.746 62.9372 131.346C65.3094 130.739 65.7359 132.947 65.7359 132.947C65.7359 132.947 64.1847 134.506 62.5042 132.898C64.2752 134.592 62.3943 136.027 62.3943 136.027C62.3943 136.027 60.2808 135.458 60.8819 133.312Z" fill="#7BABFF"/>
<path d="M61.3148 133.028C62.043 133.028 62.6333 132.463 62.6333 131.766C62.6333 131.069 62.043 130.504 61.3148 130.504C60.5866 130.504 59.9962 131.069 59.9962 131.766C59.9962 132.463 60.5866 133.028 61.3148 133.028Z" fill="#466DC6"/>
<path d="M75.6444 133.312C76.2713 135.545 78.456 134.865 78.456 134.865C78.456 134.865 79.167 132.774 76.8337 132.174C79.0571 132.743 79.6776 130.752 79.6776 130.752C79.6776 130.752 78.1845 128.909 76.4006 130.622C78.094 129.002 76.4265 127.523 76.4265 127.523C76.4265 127.523 74.1448 127.956 74.7783 130.208C74.1513 127.975 71.9666 128.655 71.9666 128.655C71.9666 128.655 71.2557 130.746 73.589 131.346C71.2169 130.739 70.7903 132.947 70.7903 132.947C70.7903 132.947 72.3415 134.506 74.022 132.898C72.251 134.592 74.1319 136.027 74.1319 136.027C74.1319 136.027 76.2455 135.458 75.6444 133.312Z" fill="#7BABFF"/>
<path d="M75.2048 133.028C75.933 133.028 76.5233 132.463 76.5233 131.766C76.5233 131.069 75.933 130.504 75.2048 130.504C74.4766 130.504 73.8862 131.069 73.8862 131.766C73.8862 132.463 74.4766 133.028 75.2048 133.028Z" fill="#466DC6"/>
<path d="M68.9741 125.39C70.1828 127.394 68.1339 128.389 68.1339 128.389C68.1339 128.389 66.085 127.387 67.2936 125.39C66.1431 127.301 64.2299 126.311 64.2299 126.311C64.2299 126.311 63.9262 123.998 66.4534 123.998C64.0619 123.998 64.1394 121.827 64.1394 121.827C64.1394 121.827 66.072 120.59 67.2936 122.607C66.085 120.603 68.1339 119.607 68.1339 119.607C68.1339 119.607 70.1828 120.609 68.9741 122.607C70.2022 120.572 72.1348 121.846 72.1348 121.846C72.1348 121.846 72.1865 123.998 69.8144 123.998C72.3222 123.998 72.0508 126.286 72.0508 126.286C72.0508 126.286 70.1376 127.313 68.9741 125.39Z" fill="#7BABFF"/>
<path d="M68.1403 125.26C68.8685 125.26 69.4589 124.695 69.4589 123.998C69.4589 123.301 68.8685 122.737 68.1403 122.737C67.4121 122.737 66.8218 123.301 66.8218 123.998C66.8218 124.695 67.4121 125.26 68.1403 125.26Z" fill="#466DC6"/>
<path d="M68.9741 140.944C70.1828 142.948 68.1339 143.944 68.1339 143.944C68.1339 143.944 66.085 142.942 67.2936 140.944C66.1431 142.855 64.2299 141.866 64.2299 141.866C64.2299 141.866 63.9262 139.553 66.4534 139.553C64.0619 139.553 64.1394 137.382 64.1394 137.382C64.1394 137.382 66.072 136.145 67.2936 138.161C66.085 136.157 68.1339 135.161 68.1339 135.161C68.1339 135.161 70.1828 136.163 68.9741 138.161C70.2022 136.126 72.1348 137.4 72.1348 137.4C72.1348 137.4 72.1865 139.553 69.8144 139.553C72.3222 139.553 72.0508 141.841 72.0508 141.841C72.0508 141.841 70.1376 142.868 68.9741 140.944Z" fill="#7BABFF"/>
<path d="M68.1403 140.814C68.8685 140.814 69.4589 140.249 69.4589 139.553C69.4589 138.856 68.8685 138.291 68.1403 138.291C67.4121 138.291 66.8218 138.856 66.8218 139.553C66.8218 140.249 67.4121 140.814 68.1403 140.814Z" fill="#466DC6"/>
<path d="M77.5447 147.865C79.2123 146.943 81.2741 141.958 81.2741 141.958C81.2741 141.958 75.7284 141.173 74.0609 142.094C72.3933 143.016 70.3314 148.001 70.3314 148.001C70.3314 148.001 75.8771 148.786 77.5447 147.865Z" fill="#004D30"/>
<path d="M58.7294 147.865C60.397 148.786 65.9427 148.001 65.9427 148.001C65.9427 148.001 63.8808 143.016 62.2133 142.094C60.5457 141.173 55 141.958 55 141.958C55 141.958 57.0619 146.943 58.7294 147.865Z" fill="#004D30"/>
<path d="M257.833 149.778C259.489 148.863 261.538 143.91 261.538 143.91C261.538 143.91 256.028 143.13 254.372 144.045C252.715 144.961 250.667 149.913 250.667 149.913C250.667 149.913 256.176 150.693 257.833 149.778Z" fill="#004D30"/>
<path d="M235.705 149.778C237.362 150.693 242.871 149.913 242.871 149.913C242.871 149.913 240.823 144.961 239.166 144.045C237.509 143.13 232 143.91 232 143.91C232 143.91 234.048 148.863 235.705 149.778Z" fill="#004D30"/>
<path d="M247.944 133.447H245.6V150.227H247.944V133.447Z" fill="#004D30"/>
<path d="M249.113 127.898C247.52 129.422 246.769 135.646 246.769 135.646C246.769 135.646 253.28 134.927 254.866 133.404C256.458 131.88 257.21 125.656 257.21 125.656C257.21 125.656 250.699 126.375 249.113 127.898Z" fill="#BA2F8B"/>
<path d="M244.425 127.898C246.018 129.422 246.769 135.646 246.769 135.646C246.769 135.646 240.258 134.927 238.672 133.404C237.079 131.88 236.328 125.656 236.328 125.656C236.328 125.656 242.839 126.375 244.425 127.898Z" fill="#BA2F8B"/>
<path d="M250.84 128.587C250.84 130.737 246.769 135.652 246.769 135.652C246.769 135.652 242.698 130.737 242.698 128.587C242.698 126.436 246.769 121.521 246.769 121.521C246.769 121.521 250.84 126.436 250.84 128.587Z" fill="#E851B8"/>
<path d="M239.384 131.757C241.632 131.757 246.769 135.652 246.769 135.652C246.769 135.652 241.632 139.548 239.384 139.548C237.137 139.548 232 135.652 232 135.652C232 135.652 237.137 131.757 239.384 131.757Z" fill="#E851B8"/>
<path d="M254.153 131.757C251.906 131.757 246.769 135.652 246.769 135.652C246.769 135.652 251.906 139.548 254.153 139.548C256.401 139.548 261.538 135.652 261.538 135.652C261.538 135.652 256.401 131.757 254.153 131.757Z" fill="#E851B8"/>
<path d="M158.989 503.951H156.684V519.573H158.989V503.951Z" fill="#004D30"/>
<path d="M167.029 514.696C168.659 513.796 170.674 508.925 170.674 508.925C170.674 508.925 165.255 508.157 163.625 509.058C161.996 509.958 159.981 514.829 159.981 514.829C159.981 514.829 165.4 515.597 167.029 514.696Z" fill="#004D30"/>
<path d="M148.644 514.696C150.274 515.597 155.693 514.829 155.693 514.829C155.693 514.829 153.678 509.958 152.048 509.058C150.419 508.157 145 508.925 145 508.925C145 508.925 147.015 513.796 148.644 514.696Z" fill="#004D30"/>
<path d="M159.179 492.505C160.556 494.415 162.583 497.503 162.558 499.165C162.52 501.673 157.682 507.336 157.682 507.336C157.682 507.336 153.027 501.534 153.065 499.026C153.091 497.473 154.966 494.699 156.381 492.826L158.017 502.664L159.185 492.499L159.179 492.505Z" fill="#004D30"/>
<path d="M157.947 490.868C157.947 490.868 158.484 491.526 159.191 492.505L157.998 502.948L157.486 502.936L156.381 492.826C157.246 491.683 157.941 490.868 157.941 490.868H157.947Z" fill="#9EA267"/>
<path d="M69.2127 604.492H66.907V621H69.2127V604.492Z" fill="#004D30"/>
<path d="M68.063 598.018C68.063 589.514 61.2026 591.127 65.3972 598.647C61.2026 591.127 55.9151 595.613 63.3378 600.388C55.9151 595.613 53.4072 601.929 62.365 602.848C53.4072 601.935 54.26 608.645 62.6934 605.459C54.26 608.645 58.2714 614.212 64.2538 607.623C58.2714 614.212 64.5254 617.349 66.6859 608.844C64.5254 617.349 71.5943 617.349 69.4339 608.844C71.5943 617.349 77.8483 614.212 71.866 607.623C77.8483 614.212 81.8597 608.645 73.4263 605.459C81.8597 608.645 82.7126 601.935 73.7548 602.848C82.7126 601.935 80.2046 595.613 72.782 600.388C80.2046 595.613 74.9172 591.127 70.7226 598.647C74.9172 591.127 68.0567 589.514 68.0567 598.018H68.063Z" fill="#FF5319"/>
<path d="M68.0629 607.158C70.0272 607.158 71.6195 605.634 71.6195 603.755C71.6195 601.875 70.0272 600.352 68.0629 600.352C66.0987 600.352 64.5063 601.875 64.5063 603.755C64.5063 605.634 66.0987 607.158 68.0629 607.158Z" fill="#D13819"/>
<path d="M258.395 603.713C258.395 603.713 257.861 609.309 256.283 609.933C254.112 610.788 247.363 607.294 245.01 607.431C247.057 606.321 251.054 600.569 253.29 600.176C254.842 599.901 258.389 603.719 258.389 603.719L258.395 603.713Z" fill="#7BABFF"/>
<path d="M250.095 597.243C250.389 599.471 245.524 605.204 245.009 607.419C244.507 605.204 239.624 599.446 239.924 597.225C240.126 595.74 244.996 593.7 244.996 593.7C244.996 593.7 249.9 595.746 250.095 597.243Z" fill="#7BABFF"/>
<path d="M255.07 613.327C255.722 614.556 253.284 618.58 253.284 618.58C253.284 618.58 248.067 619.672 246.979 618.58C245.362 616.964 245.864 609.584 245.01 607.419C246.848 608.966 254.001 611.306 255.07 613.321V613.327Z" fill="#7BABFF"/>
<path d="M245.009 607.425C244.155 609.578 244.853 616.939 243.268 618.593C242.206 619.703 236.97 618.593 236.97 618.593C236.97 618.593 234.518 614.544 235.17 613.296C236.201 611.331 243.177 608.966 245.009 607.425Z" fill="#7BABFF"/>
<path d="M245.009 607.425C242.675 607.275 235.862 610.744 233.697 609.89C232.126 609.272 231.597 603.713 231.597 603.713C231.597 603.713 235.17 599.87 236.722 600.151C238.952 600.556 242.962 606.315 245.003 607.425H245.009Z" fill="#7BABFF"/>
<path d="M243.419 605.753C242.467 606.414 242.069 607.581 242.434 608.654C242.799 609.721 243.836 610.445 245.009 610.445C246.183 610.445 247.226 609.721 247.585 608.654C247.95 607.587 247.552 606.414 246.6 605.753C245.648 605.092 244.364 605.092 243.419 605.753Z" fill="#466DC6"/>
<path d="M235.764 591.978C234.636 590.898 230 590.381 230 590.381C230 590.381 230.535 594.81 231.669 595.896C232.804 596.981 237.433 597.493 237.433 597.493C237.433 597.493 236.898 593.063 235.764 591.978Z" fill="#004D30"/>
<path d="M253.675 592.133C254.914 590.948 259.999 590.387 259.999 590.387C259.999 590.387 259.413 595.247 258.174 596.438C256.935 597.624 251.849 598.185 251.849 598.185C251.849 598.185 252.436 593.325 253.675 592.133Z" fill="#004D30"/>
<path d="M16.8517 12.7872H14.5493V31.5763H16.8517V12.7872Z" fill="#004D30"/>
<path d="M24.8813 26.7055C26.5087 25.8062 28.5209 20.9414 28.5209 20.9414C28.5209 20.9414 23.1088 20.1748 21.4814 21.0742C19.854 21.9735 17.8418 26.8383 17.8418 26.8383C17.8418 26.8383 23.2539 27.6048 24.8813 26.7055Z" fill="#004D30"/>
<path d="M6.51937 26.7055C8.14679 27.6048 13.5589 26.8383 13.5589 26.8383C13.5589 26.8383 11.5467 21.9735 9.91929 21.0742C8.29187 20.1748 2.87976 20.9414 2.87976 20.9414C2.87976 20.9414 4.89195 25.8062 6.51937 26.7055Z" fill="#004D30"/>
<path d="M8.9794 10.379C11.4079 10.379 16.9588 14.0366 16.9588 14.0366C16.9588 14.0366 11.4079 17.6942 8.9794 17.6942C6.55088 17.6942 1 14.0366 1 14.0366C1 14.0366 6.55088 10.379 8.9794 10.379Z" fill="#E9B219"/>
<path d="M22.2322 10.379C24.6607 10.379 30.2116 14.0366 30.2116 14.0366C30.2116 14.0366 24.6607 17.6942 22.2322 17.6942C19.8037 17.6942 14.2528 14.0366 14.2528 14.0366C14.2528 14.0366 19.8037 10.379 22.2322 10.379Z" fill="#E9B219"/>
<path d="M20.649 5.21846C20.649 5.21846 19.5451 5.64094 18.3719 6.21433C17.4383 4.68126 15.6595 2.87057 15.6595 2.87057C15.6595 2.87057 13.9059 4.65109 12.9661 6.17811C11.8244 5.6168 10.7583 5.21846 10.7583 5.21846C10.7583 5.21846 10.1086 9.41325 10.8719 10.6747C11.5594 11.8154 14.9909 13.1976 15.6406 13.4511C15.6406 13.4813 15.6469 13.4934 15.6469 13.4934C15.6469 13.4934 15.6658 13.4873 15.7037 13.4753C15.7352 13.4873 15.7604 13.4934 15.7604 13.4934C15.7604 13.4934 15.7604 13.4752 15.7667 13.4511C16.4164 13.1976 19.8479 11.8154 20.5355 10.6747C21.2987 9.41325 20.649 5.21846 20.649 5.21846Z" fill="#C9831C"/>
<path d="M303.957 12.2396H301.657V28.7057H303.957V12.2396Z" fill="#004D30"/>
<path d="M307.555 7.03623C307.555 9.17664 302.741 14.0725 302.741 14.0725C302.741 14.0725 297.927 9.17664 297.927 7.03623C297.927 4.89581 302.741 0 302.741 0C302.741 0 307.555 4.89581 307.555 7.03623Z" fill="#BA2F8B"/>
<path d="M302.722 7.60902C303.844 9.46605 302.886 15.6401 302.886 15.6401C302.886 15.6401 296.818 13.3429 295.696 11.4859C294.575 9.62884 295.532 3.45479 295.532 3.45479C295.532 3.45479 301.601 5.75198 302.722 7.60902Z" fill="#E851B8"/>
<path d="M302.899 7.60902C301.777 9.46605 302.735 15.6401 302.735 15.6401C302.735 15.6401 308.803 13.3429 309.924 11.4859C311.046 9.62884 310.088 3.45479 310.088 3.45479C310.088 3.45479 304.02 5.75198 302.899 7.60902Z" fill="#E851B8"/>
<path d="M311.985 23.84C313.611 22.9417 315.621 18.082 315.621 18.082C315.621 18.082 310.214 17.3163 308.589 18.2146C306.963 19.113 304.953 23.9727 304.953 23.9727C304.953 23.9727 310.359 24.7384 311.985 23.84Z" fill="#004D30"/>
<path d="M293.636 23.84C295.261 24.7384 300.668 23.9727 300.668 23.9727C300.668 23.9727 298.658 19.113 297.032 18.2146C295.406 17.3163 290 18.082 290 18.082C290 18.082 292.01 22.9417 293.636 23.84Z" fill="#004D30"/>
</svg>
