<svg width="23" height="25" viewBox="0 0 23 25" fill="none" xmlns="http://www.w3.org/2000/svg">
<path d="M12.508 11.3948H10.5869V25H12.508V11.3948Z" fill="#004D30"/>
<path d="M19.2082 20.7527C20.5661 19.9684 22.245 15.7263 22.245 15.7263C22.245 15.7263 17.7292 15.0579 16.3713 15.8421C15.0134 16.6263 13.3345 20.8684 13.3345 20.8684C13.3345 20.8684 17.8503 21.5369 19.2082 20.7527Z" fill="#004D30"/>
<path d="M3.88694 20.7527C5.24483 21.5369 9.76062 20.8684 9.76062 20.8684C9.76062 20.8684 8.08167 16.6263 6.72378 15.8421C5.36589 15.0579 0.850098 15.7263 0.850098 15.7263C0.850098 15.7263 2.52904 19.9684 3.88694 20.7527Z" fill="#004D30"/>
<path d="M12.6657 1.42628C13.8131 3.08944 15.5026 5.77892 15.4815 7.22628C15.4499 9.4105 11.4184 14.3421 11.4184 14.3421C11.4184 14.3421 7.53941 9.28944 7.57099 7.10523C7.59205 5.7526 9.1552 3.33681 10.3342 1.70523L11.6973 10.2737L12.671 1.42102L12.6657 1.42628Z" fill="#004D30"/>
<path d="M11.6395 0C11.6395 0 12.0869 0.573684 12.6763 1.42632L11.6816 10.5211L11.2553 10.5105L10.3342 1.70526C11.0553 0.710526 11.6342 0 11.6342 0L11.6395 0Z" fill="#9EA267"/>
</svg>
