<svg width="26" height="26" viewBox="0 0 26 26" fill="none" xmlns="http://www.w3.org/2000/svg">
<path d="M24.3126 12.1114C24.3126 12.1114 23.8671 16.9852 22.5522 17.5286C20.7428 18.2729 15.1192 15.2302 13.1577 15.3497C14.8638 14.3826 18.1945 9.37292 20.0582 9.03061C21.3514 8.79154 24.3072 12.1168 24.3072 12.1168L24.3126 12.1114Z" fill="#7BABFF"/>
<path d="M17.3959 6.47683C17.6405 8.41658 13.5871 13.4099 13.1578 15.3388C12.7395 13.4099 8.6698 8.39485 8.91974 6.46053C9.08818 5.16737 13.147 3.39062 13.147 3.39062C13.147 3.39062 17.2329 5.1728 17.3959 6.47683Z" fill="#7BABFF"/>
<path d="M21.5416 20.4844C22.0849 21.5547 20.0528 25.0593 20.0528 25.0593C20.0528 25.0593 15.706 26.0102 14.7986 25.0593C13.4511 23.6521 13.8695 17.2243 13.1577 15.3389C14.69 16.6864 20.6505 18.7239 21.5416 20.4789V20.4844Z" fill="#7BABFF"/>
<path d="M13.1577 15.3442C12.4459 17.2188 13.0273 23.6303 11.707 25.0701C10.8213 26.0373 6.45826 25.0701 6.45826 25.0701C6.45826 25.0701 4.41527 21.5438 4.95862 20.4571C5.8171 18.7456 11.6309 16.6863 13.1577 15.3442Z" fill="#7BABFF"/>
<path d="M13.1578 15.3443C11.2127 15.2139 5.53469 18.2349 3.73078 17.4905C2.42131 16.9526 1.9812 12.1114 1.9812 12.1114C1.9812 12.1114 4.95874 8.76436 6.25191 9.00887C8.11016 9.36204 11.4517 14.3771 13.1524 15.3443H13.1578Z" fill="#7BABFF"/>
<path d="M11.8319 13.888C11.0386 14.464 10.7071 15.48 11.0114 16.4146C11.3157 17.3437 12.1796 17.974 13.1576 17.974C14.1356 17.974 15.005 17.3437 15.3038 16.4146C15.6081 15.4855 15.2767 14.464 14.4834 13.888C13.6901 13.3121 12.6197 13.3121 11.8319 13.888Z" fill="#466DC6"/>
<path d="M5.45309 1.89098C4.5131 0.950985 0.649902 0.5 0.649902 0.5C0.649902 0.5 1.09545 4.35777 2.04087 5.30319C2.9863 6.24862 6.84406 6.69416 6.84406 6.69416C6.84406 6.69416 6.39852 2.8364 5.45309 1.89098Z" fill="#004D30"/>
<path d="M20.379 2.02687C21.4114 0.994507 25.6495 0.505493 25.6495 0.505493C25.6495 0.505493 25.1605 4.73816 24.1281 5.77596C23.0958 6.80832 18.8577 7.29733 18.8577 7.29733C18.8577 7.29733 19.3467 3.06466 20.379 2.02687Z" fill="#004D30"/>
</svg>
