<svg width="25" height="26" viewBox="0 0 25 26" fill="none" xmlns="http://www.w3.org/2000/svg">
<path d="M13.3047 12.9984C13.2776 12.9605 13.2505 12.9279 13.218 12.8954C24.5447 -0.111318 0.904988 -0.0842307 12.3997 12.9875C12.3726 13.0201 12.3509 13.0526 12.3292 13.0905C-0.823824 1.50368 -0.791306 25.474 12.4268 13.7138C12.4485 13.7409 12.4756 13.7571 12.5081 13.7788C0.720726 27.0186 24.7615 27.0403 13.0934 13.8493C13.1259 13.833 13.1584 13.8113 13.1855 13.7842C26.2952 25.3548 26.3332 1.65002 13.3102 13.0038L13.3047 12.9984Z" fill="#E9B219"/>
<path d="M11.5272 13.4319C12.1708 13.4319 12.6924 12.9102 12.6924 12.2667C12.6924 11.6232 12.1708 11.1016 11.5272 11.1016C10.8837 11.1016 10.3621 11.6232 10.3621 12.2667C10.3621 12.9102 10.8837 13.4319 11.5272 13.4319Z" fill="#AD6F0B"/>
<path d="M14.2587 13.5241C14.9022 13.5241 15.4239 13.0024 15.4239 12.3589C15.4239 11.7154 14.9022 11.1937 14.2587 11.1937C13.6152 11.1937 13.0935 11.7154 13.0935 12.3589C13.0935 13.0024 13.6152 13.5241 14.2587 13.5241Z" fill="#AD6F0B"/>
<path d="M12.7685 15.7786C13.412 15.7786 13.9336 15.257 13.9336 14.6134C13.9336 13.9699 13.412 13.4482 12.7685 13.4482C12.1249 13.4482 11.6033 13.9699 11.6033 14.6134C11.6033 15.257 12.1249 15.7786 12.7685 15.7786Z" fill="#AD6F0B"/>
<path d="M23.3199 6.48422C22.1818 7.62231 17.5103 8.16424 17.5103 8.16424C17.5103 8.16424 18.0522 3.49267 19.1903 2.35458C20.3284 1.21649 25 0.674561 25 0.674561C25 0.674561 24.458 5.34613 23.3199 6.48422Z" fill="#004D30"/>
<path d="M1.68004 6.48422C2.81813 7.62231 7.48971 8.16424 7.48971 8.16424C7.48971 8.16424 6.94776 3.49267 5.80968 2.35458C4.67159 1.21649 0 0.674561 0 0.674561C0 0.674561 0.541947 5.34613 1.68004 6.48422Z" fill="#004D30"/>
<path d="M23.3199 19.865C22.1818 18.7269 17.5103 18.1849 17.5103 18.1849C17.5103 18.1849 18.0522 22.8565 19.1903 23.9946C20.3284 25.1327 25 25.6746 25 25.6746C25 25.6746 24.458 21.003 23.3199 19.865Z" fill="#004D30"/>
<path d="M1.68004 19.865C2.81813 18.7269 7.48971 18.1849 7.48971 18.1849C7.48971 18.1849 6.94776 22.8565 5.80968 23.9946C4.67159 25.1327 0 25.6746 0 25.6746C0 25.6746 0.541947 21.003 1.68004 19.865Z" fill="#004D30"/>
</svg>
