<svg width="22" height="26" viewBox="0 0 22 26" fill="none" xmlns="http://www.w3.org/2000/svg">
<path d="M3.8185 21.9512C4.56665 21.203 4.9213 18.1327 4.9213 18.1327C4.9213 18.1327 1.85095 18.4873 1.1028 19.2355C0.354644 19.9837 0 23.054 0 23.054C0 23.054 3.07034 22.6993 3.8185 21.9512Z" fill="#004D30"/>
<path d="M17.9265 21.9512C17.1784 21.203 16.8237 18.1327 16.8237 18.1327C16.8237 18.1327 19.8941 18.4873 20.6422 19.2355C21.3904 19.9837 21.745 23.054 21.745 23.054C21.745 23.054 18.6747 22.6993 17.9265 21.9512Z" fill="#004D30"/>
<path d="M12.7915 4.08292C12.7915 5.142 10.8726 7.56135 10.8726 7.56135C10.8726 7.56135 8.95361 5.142 8.95361 4.08292C8.95361 3.02385 10.8726 0.604492 10.8726 0.604492C10.8726 0.604492 12.7915 3.02385 12.7915 4.08292Z" fill="#004D30"/>
<path d="M6.34961 9.86899C7.70503 7.52251 5.40713 6.35168 5.40713 6.35168C5.40713 6.35168 3.11409 7.52251 4.46465 9.86899C3.17238 7.62939 1.0348 8.79048 1.0348 8.79048C1.0348 8.79048 0.694732 11.4965 3.52703 11.4965C0.845334 11.4965 0.937639 14.0421 0.937639 14.0421C0.937639 14.0421 3.10437 15.4947 4.46951 13.1239C3.11409 15.4704 5.41199 16.6412 5.41199 16.6412C5.41199 16.6412 7.70503 15.4704 6.35447 13.1239C7.72932 15.5093 9.90091 14.0178 9.90091 14.0178C9.90091 14.0178 9.9592 11.4916 7.29694 11.4916C10.1049 11.4916 9.80375 8.8099 9.80375 8.8099C9.80375 8.8099 7.65645 7.60509 6.35447 9.86413L6.34961 9.86899Z" fill="#FF5319"/>
<path d="M5.41193 12.9782C6.22759 12.9782 6.88881 12.3169 6.88881 11.5013C6.88881 10.6856 6.22759 10.0244 5.41193 10.0244C4.59628 10.0244 3.93506 10.6856 3.93506 11.5013C3.93506 12.3169 4.59628 12.9782 5.41193 12.9782Z" fill="#D13819"/>
<path d="M17.3874 9.7281C18.7429 7.38162 16.445 6.21082 16.445 6.21082C16.445 6.21082 14.1519 7.38162 15.5025 9.7281C14.2102 7.4885 12.0726 8.6496 12.0726 8.6496C12.0726 8.6496 11.7326 11.3556 14.5649 11.3556C11.8832 11.3556 11.9755 13.9012 11.9755 13.9012C11.9755 13.9012 14.1422 15.3538 15.5073 12.983C14.1519 15.3295 16.4498 16.5004 16.4498 16.5004C16.4498 16.5004 18.7429 15.3295 17.3923 12.983C18.7672 15.3684 20.9387 13.877 20.9387 13.877C20.9387 13.877 20.997 11.3507 18.3348 11.3507C21.1428 11.3507 20.8416 8.66903 20.8416 8.66903C20.8416 8.66903 18.6943 7.46421 17.3923 9.72324L17.3874 9.7281Z" fill="#FF5319"/>
<path d="M16.4547 12.8324C17.2703 12.8324 17.9315 12.1712 17.9315 11.3555C17.9315 10.5399 17.2703 9.87866 16.4547 9.87866C15.639 9.87866 14.9778 10.5399 14.9778 11.3555C14.9778 12.1712 15.639 12.8324 16.4547 12.8324Z" fill="#D13819"/>
<path d="M11.8052 18.8322C13.1606 16.4857 10.8627 15.3149 10.8627 15.3149C10.8627 15.3149 8.56965 16.4857 9.92022 18.8322C8.62795 16.5926 6.49037 17.7537 6.49037 17.7537C6.49037 17.7537 6.1503 20.4597 8.98259 20.4597C6.3009 20.4597 6.39321 23.0054 6.39321 23.0054C6.39321 23.0054 8.55994 24.458 9.92507 22.0872C8.56965 24.4337 10.8676 25.6045 10.8676 25.6045C10.8676 25.6045 13.1606 24.4337 11.81 22.0872C13.1849 24.4725 15.3565 22.9811 15.3565 22.9811C15.3565 22.9811 15.4148 20.4548 12.7525 20.4548C15.5605 20.4548 15.2593 17.7732 15.2593 17.7732C15.2593 17.7732 13.112 16.5683 11.81 18.8274L11.8052 18.8322Z" fill="#FF5319"/>
<path d="M10.8724 21.9365C11.688 21.9365 12.3493 21.2753 12.3493 20.4597C12.3493 19.644 11.688 18.9828 10.8724 18.9828C10.0567 18.9828 9.39551 19.644 9.39551 20.4597C9.39551 21.2753 10.0567 21.9365 10.8724 21.9365Z" fill="#D13819"/>
</svg>
