<svg width="21" height="26" viewBox="0 0 21 26" fill="none" xmlns="http://www.w3.org/2000/svg">
<path d="M11.7703 11.2277H9.84888V25.6045H11.7703V11.2277Z" fill="#004D30"/>
<path d="M10.8123 5.58959C10.8123 -1.81729 5.09526 -0.411711 8.59076 6.13709C5.09526 -0.411711 0.689031 3.49439 6.87459 7.65319C0.689031 3.49439 -1.4009 8.9956 6.06389 9.79577C-1.4009 9.00086 -0.690212 14.8442 6.33764 12.07C-0.690212 14.8442 2.65262 19.6927 7.63792 13.9546C2.65262 19.6927 7.86428 22.4249 9.66468 15.018C7.86428 22.4249 13.755 22.4249 11.9547 15.018C13.755 22.4249 18.9667 19.6927 13.9814 13.9546C18.9667 19.6927 22.3095 14.8442 15.2817 12.07C22.3095 14.8442 23.0202 9.00086 15.5554 9.79577C23.0202 9.00086 20.9303 3.49439 14.7447 7.65319C20.9303 3.49439 16.5241 -0.411711 13.0286 6.13709C16.5241 -0.411711 10.807 -1.81729 10.807 5.58959H10.8123Z" fill="#FF5319"/>
<path d="M10.8124 13.5492C12.4493 13.5492 13.7762 12.2223 13.7762 10.5854C13.7762 8.94853 12.4493 7.62158 10.8124 7.62158C9.17558 7.62158 7.84863 8.94853 7.84863 10.5854C7.84863 12.2223 9.17558 13.5492 10.8124 13.5492Z" fill="#D13819"/>
</svg>
