<svg width="26" height="26" viewBox="0 0 26 26" fill="none" xmlns="http://www.w3.org/2000/svg">
<path d="M12.6209 11.5194C6.413 19.0117 9.91834 21.9712 12.546 23.3519C12.9313 23.5553 13.3969 23.5606 13.7876 23.3626C16.5223 21.9979 19.9259 19.0866 13.5949 11.514C13.6217 11.4712 12.5835 11.4766 12.6209 11.514V11.5194Z" fill="#E851B8"/>
<path d="M13.1774 10.128C14.3922 0.473578 9.84868 -0.141868 6.88921 0.104308C6.45572 0.14177 6.0597 0.382595 5.83493 0.757211C4.26154 3.37952 2.95039 7.66085 12.3533 10.6524C12.3533 10.7006 13.2256 10.1387 13.1721 10.128H13.1774Z" fill="#E851B8"/>
<path d="M12.4444 10.6203C3.673 6.41386 1.65008 10.5239 0.943659 13.4085C0.841977 13.8313 0.943659 14.2808 1.23265 14.6126C3.21811 16.9352 6.86795 19.5308 12.6798 11.5622C12.728 11.5782 12.4711 10.5721 12.4444 10.6203Z" fill="#E851B8"/>
<path d="M13.8411 10.6203C22.6125 6.41386 24.6354 10.5239 25.3418 13.4085C25.4435 13.8313 25.3418 14.2808 25.0528 14.6126C23.0673 16.9352 19.4175 19.5308 13.6056 11.5622C13.5574 11.5782 13.8143 10.5721 13.8411 10.6203Z" fill="#E851B8"/>
<path d="M13.1508 10.128C11.936 0.473578 16.4795 -0.141868 19.439 0.104308C19.8725 0.14177 20.2685 0.382595 20.4933 0.757211C22.0667 3.37952 23.3778 7.66085 13.975 10.6524C13.975 10.7006 13.1027 10.1387 13.1562 10.128H13.1508Z" fill="#E851B8"/>
<path d="M13.1668 9.05225L11.4917 10.2724L12.1285 12.2472H14.205L14.8472 10.2724L13.1668 9.05225Z" fill="#BA2F8B"/>
<path d="M13.1775 14.618C13.7273 14.618 14.1729 14.1724 14.1729 13.6226C14.1729 13.0729 13.7273 12.6272 13.1775 12.6272C12.6278 12.6272 12.1821 13.0729 12.1821 13.6226C12.1821 14.1724 12.6278 14.618 13.1775 14.618Z" fill="#BA2F8B"/>
<path d="M10.523 12.6593C11.0727 12.6593 11.5184 12.2136 11.5184 11.6639C11.5184 11.1141 11.0727 10.6685 10.523 10.6685C9.97325 10.6685 9.52759 11.1141 9.52759 11.6639C9.52759 12.2136 9.97325 12.6593 10.523 12.6593Z" fill="#BA2F8B"/>
<path d="M15.8157 12.6593C16.3655 12.6593 16.8111 12.2136 16.8111 11.6639C16.8111 11.1141 16.3655 10.6685 15.8157 10.6685C15.266 10.6685 14.8203 11.1141 14.8203 11.6639C14.8203 12.2136 15.266 12.6593 15.8157 12.6593Z" fill="#BA2F8B"/>
<path d="M11.556 9.55539C12.1057 9.55539 12.5514 9.10973 12.5514 8.55998C12.5514 8.01023 12.1057 7.56458 11.556 7.56458C11.0062 7.56458 10.5605 8.01023 10.5605 8.55998C10.5605 9.10973 11.0062 9.55539 11.556 9.55539Z" fill="#BA2F8B"/>
<path d="M14.8204 9.55539C15.3701 9.55539 15.8158 9.10973 15.8158 8.55998C15.8158 8.01023 15.3701 7.56458 14.8204 7.56458C14.2706 7.56458 13.825 8.01023 13.825 8.55998C13.825 9.10973 14.2706 9.55539 14.8204 9.55539Z" fill="#BA2F8B"/>
<path d="M2.31893 19.3275C3.44277 18.2036 8.05591 17.6685 8.05591 17.6685C8.05591 17.6685 7.52074 22.2816 6.39689 23.4054C5.27304 24.5293 0.659912 25.0645 0.659912 25.0645C0.659912 25.0645 1.19508 20.4513 2.31893 19.3275Z" fill="#004D30"/>
<path d="M23.8005 19.3275C22.6766 18.2036 18.0635 17.6685 18.0635 17.6685C18.0635 17.6685 18.5986 22.2816 19.7225 23.4054C20.8463 24.5293 25.4595 25.0645 25.4595 25.0645C25.4595 25.0645 24.9243 20.4513 23.8005 19.3275Z" fill="#004D30"/>
</svg>
