<svg width="21" height="26" viewBox="0 0 21 26" fill="none" xmlns="http://www.w3.org/2000/svg">
<path d="M11.7121 7.88953H9.89087V25.4977H11.7121V7.88953Z" fill="#004D30"/>
<path d="M18.0688 25.1385C19.3562 24.395 20.9478 20.3734 20.9478 20.3734C20.9478 20.3734 16.6668 19.7398 15.3795 20.4832C14.0922 21.2266 12.5005 25.2482 12.5005 25.2482C12.5005 25.2482 16.7815 25.8819 18.0688 25.1385Z" fill="#004D30"/>
<path d="M15.8435 17.5195C16.6268 17.0654 17.5998 14.6106 17.5998 14.6106C17.5998 14.6106 14.9852 14.2264 14.2019 14.6754C13.4185 15.1245 12.4456 17.5843 12.4456 17.5843C12.4456 17.5843 15.0601 17.9685 15.8435 17.5195Z" fill="#7BABFF"/>
<path d="M15.8435 12.6995C16.6268 12.2455 17.5998 9.79062 17.5998 9.79062C17.5998 9.79062 14.9852 9.40642 14.2019 9.85548C13.4185 10.3045 12.4456 12.7644 12.4456 12.7644C12.4456 12.7644 15.0601 13.1486 15.8435 12.6995Z" fill="#7BABFF"/>
<path d="M15.8435 7.8796C16.6268 7.42554 17.5998 4.97067 17.5998 4.97067C17.5998 4.97067 14.9852 4.58647 14.2019 5.03553C13.4185 5.4846 12.4456 7.94445 12.4456 7.94445C12.4456 7.94445 15.0601 8.32866 15.8435 7.8796Z" fill="#7BABFF"/>
<path d="M3.53914 25.1385C4.82645 25.8819 9.1075 25.2482 9.1075 25.2482C9.1075 25.2482 7.51583 21.2266 6.22852 20.4832C4.94121 19.7398 0.660156 20.3734 0.660156 20.3734C0.660156 20.3734 2.25183 24.395 3.53914 25.1385Z" fill="#004D30"/>
<path d="M5.76439 17.5195C4.98103 17.0654 4.00806 14.6106 4.00806 14.6106C4.00806 14.6106 6.62259 14.2264 7.40595 14.6754C8.18932 15.1245 9.16228 17.5843 9.16228 17.5843C9.16228 17.5843 6.54775 17.9685 5.76439 17.5195Z" fill="#7BABFF"/>
<path d="M5.76439 12.6995C4.98103 12.2455 4.00806 9.79062 4.00806 9.79062C4.00806 9.79062 6.62259 9.40642 7.40595 9.85548C8.18932 10.3045 9.16228 12.7644 9.16228 12.7644C9.16228 12.7644 6.54775 13.1486 5.76439 12.6995Z" fill="#7BABFF"/>
<path d="M5.76439 7.8796C4.98103 7.42554 4.00806 4.97067 4.00806 4.97067C4.00806 4.97067 6.62259 4.58647 7.40595 5.03553C8.18932 5.4846 9.16228 7.94445 9.16228 7.94445C9.16228 7.94445 6.54775 8.32866 5.76439 7.8796Z" fill="#7BABFF"/>
<path d="M12.4455 3.47877C12.4455 4.38688 10.8039 6.45755 10.8039 6.45755C10.8039 6.45755 9.16235 4.38688 9.16235 3.47877C9.16235 2.57067 10.8039 0.5 10.8039 0.5C10.8039 0.5 12.4455 2.57067 12.4455 3.47877Z" fill="#7BABFF"/>
</svg>
