<svg width="25" height="26" viewBox="0 0 25 26" fill="none" xmlns="http://www.w3.org/2000/svg">
<path d="M21.5272 24.6739C22.9077 23.8766 24.6147 19.5637 24.6147 19.5637C24.6147 19.5637 20.0235 18.8841 18.643 19.6814C17.2624 20.4787 15.5554 24.7916 15.5554 24.7916C15.5554 24.7916 20.1466 25.4712 21.5272 24.6739Z" fill="#004D30"/>
<path d="M3.08754 24.6739C4.46811 25.4712 9.05928 24.7916 9.05928 24.7916C9.05928 24.7916 7.35231 20.4787 5.97174 19.6814C4.59118 18.8841 0 19.5637 0 19.5637C0 19.5637 1.70698 23.8766 3.08754 24.6739Z" fill="#004D30"/>
<path d="M13.2866 10.4508H11.3335V25.0645H13.2866V10.4508Z" fill="#004D30"/>
<path d="M14.2605 5.61877C12.9334 6.94582 12.3074 12.3664 12.3074 12.3664C12.3074 12.3664 17.7333 11.7404 19.055 10.4133C20.3821 9.08625 21.0081 3.66565 21.0081 3.66565C21.0081 3.66565 15.5822 4.29172 14.2605 5.61877Z" fill="#BA2F8B"/>
<path d="M10.3543 5.61877C11.6814 6.94582 12.3075 12.3664 12.3075 12.3664C12.3075 12.3664 6.88151 11.7404 5.55981 10.4133C4.23276 9.08625 3.60669 3.66565 3.60669 3.66565C3.60669 3.66565 9.03262 4.29172 10.3543 5.61877Z" fill="#BA2F8B"/>
<path d="M15.6999 6.21813C15.6999 8.09099 12.3073 12.3718 12.3073 12.3718C12.3073 12.3718 8.91479 8.09099 8.91479 6.21813C8.91479 4.34527 12.3073 0.0644531 12.3073 0.0644531C12.3073 0.0644531 15.6999 4.34527 15.6999 6.21813Z" fill="#E851B8"/>
<path d="M6.15368 8.97925C8.02654 8.97925 12.3074 12.3718 12.3074 12.3718C12.3074 12.3718 8.02654 15.7643 6.15368 15.7643C4.28082 15.7643 0 12.3718 0 12.3718C0 12.3718 4.28082 8.97925 6.15368 8.97925Z" fill="#E851B8"/>
<path d="M18.4611 8.97925C16.5882 8.97925 12.3074 12.3718 12.3074 12.3718C12.3074 12.3718 16.5882 15.7643 18.4611 15.7643C20.3339 15.7643 24.6147 12.3718 24.6147 12.3718C24.6147 12.3718 20.3339 8.97925 18.4611 8.97925Z" fill="#E851B8"/>
</svg>
