<svg width="25" height="26" viewBox="0 0 25 26" fill="none" xmlns="http://www.w3.org/2000/svg">
<path d="M13.3395 9.31104H11.4209V25.6746H13.3395V9.31104Z" fill="#004D30"/>
<path d="M20.0311 21.4325C21.3873 20.6493 23.0641 16.4125 23.0641 16.4125C23.0641 16.4125 18.554 15.7449 17.1978 16.5282C15.8416 17.3114 14.1648 21.5482 14.1648 21.5482C14.1648 21.5482 18.6749 22.2157 20.0311 21.4325Z" fill="#004D30"/>
<path d="M4.7293 21.4325C6.08548 22.2157 10.5956 21.5482 10.5956 21.5482C10.5956 21.5482 8.91874 17.3114 7.56256 16.5282C6.20638 15.7449 1.69629 16.4125 1.69629 16.4125C1.69629 16.4125 3.37312 20.6493 4.7293 21.4325Z" fill="#004D30"/>
<path d="M6.77938 7.21362C8.80314 7.21362 13.4289 10.3991 13.4289 10.3991C13.4289 10.3991 8.80314 13.5845 6.77938 13.5845C4.75562 13.5845 0.129883 10.3991 0.129883 10.3991C0.129883 10.3991 4.75562 7.21362 6.77938 7.21362Z" fill="#E9B219"/>
<path d="M17.8231 7.21362C19.8468 7.21362 24.4726 10.3991 24.4726 10.3991C24.4726 10.3991 19.8468 13.5845 17.8231 13.5845C15.7993 13.5845 11.1736 10.3991 11.1736 10.3991C11.1736 10.3991 15.7993 7.21362 17.8231 7.21362Z" fill="#E9B219"/>
<path d="M16.5042 2.71935C16.5042 2.71935 15.5843 3.08729 14.6066 3.58666C13.8286 2.2515 12.3463 0.674561 12.3463 0.674561C12.3463 0.674561 10.885 2.22522 10.1018 3.55512C9.15034 3.06627 8.26199 2.71935 8.26199 2.71935C8.26199 2.71935 7.72057 6.37262 8.35661 7.47123C8.92957 8.46472 11.7891 9.66845 12.3305 9.88922C12.3305 9.9155 12.3358 9.92602 12.3358 9.92602C12.3358 9.92602 12.3516 9.92078 12.3831 9.91027C12.4094 9.92078 12.4304 9.92602 12.4304 9.92602C12.4304 9.92602 12.4304 9.91025 12.4357 9.88922C12.9771 9.66845 15.8366 8.46472 16.4096 7.47123C17.0456 6.37262 16.5042 2.71935 16.5042 2.71935Z" fill="#C9831C"/>
</svg>
