<svg width="22" height="26" viewBox="0 0 22 26" fill="none" xmlns="http://www.w3.org/2000/svg">
<path d="M11.9306 4.6366H9.9646V25.4975H11.9306V4.6366Z" fill="#004D30"/>
<path d="M4.9013 12.4359C4.37884 14.3804 2.55828 13.7879 2.55828 13.7879C2.55828 13.7879 1.9658 11.9673 3.91023 11.4449C2.05736 11.9404 1.54028 10.206 1.54028 10.206C1.54028 10.206 2.78451 8.60093 4.27111 10.0929C2.85991 8.68173 4.24957 7.39441 4.24957 7.39441C4.24957 7.39441 6.15091 7.77145 5.62306 9.73205C6.14553 7.78761 7.96608 8.38009 7.96608 8.38009C7.96608 8.38009 8.55857 10.2006 6.61413 10.7231C8.59088 10.1953 8.94637 12.1182 8.94637 12.1182C8.94637 12.1182 7.65368 13.4755 6.25325 12.0751C7.72908 13.5509 6.16168 14.8005 6.16168 14.8005C6.16168 14.8005 4.40038 14.305 4.9013 12.4359Z" fill="#7BABFF"/>
<path d="M5.26237 12.1882C5.86922 12.1882 6.36116 11.6962 6.36116 11.0894C6.36116 10.4825 5.86922 9.9906 5.26237 9.9906C4.65552 9.9906 4.16357 10.4825 4.16357 11.0894C4.16357 11.6962 4.65552 12.1882 5.26237 12.1882Z" fill="#466DC6"/>
<path d="M17.2038 12.4359C17.7262 14.3804 19.5468 13.7879 19.5468 13.7879C19.5468 13.7879 20.1393 11.9673 18.1948 11.4449C20.0477 11.9404 20.5648 10.206 20.5648 10.206C20.5648 10.206 19.3206 8.60093 17.834 10.0929C19.2452 8.68173 17.8555 7.39441 17.8555 7.39441C17.8555 7.39441 15.9542 7.77145 16.482 9.73205C15.9595 7.78761 14.139 8.38009 14.139 8.38009C14.139 8.38009 13.5465 10.2006 15.4909 10.7231C13.5142 10.1953 13.1587 12.1182 13.1587 12.1182C13.1587 12.1182 14.4514 13.4755 15.8518 12.0751C14.376 13.5509 15.9434 14.8005 15.9434 14.8005C15.9434 14.8005 17.7047 14.305 17.2038 12.4359Z" fill="#7BABFF"/>
<path d="M16.8376 12.1882C17.4444 12.1882 17.9364 11.6962 17.9364 11.0894C17.9364 10.4825 17.4444 9.9906 16.8376 9.9906C16.2307 9.9906 15.7388 10.4825 15.7388 11.0894C15.7388 11.6962 16.2307 12.1882 16.8376 12.1882Z" fill="#466DC6"/>
<path d="M11.6451 5.53614C12.6523 7.28128 10.9449 8.14847 10.9449 8.14847C10.9449 8.14847 9.23747 7.2759 10.2447 5.53614C9.28594 7.20049 7.69161 6.33869 7.69161 6.33869C7.69161 6.33869 7.43846 4.32423 9.54448 4.32423C7.55157 4.32423 7.61621 2.43366 7.61621 2.43366C7.61621 2.43366 9.2267 1.35641 10.2447 3.11233C9.23747 1.36718 10.9449 0.5 10.9449 0.5C10.9449 0.5 12.6523 1.37257 11.6451 3.11233C12.6685 1.34025 14.279 2.44982 14.279 2.44982C14.279 2.44982 14.3221 4.32423 12.3453 4.32423C14.4352 4.32423 14.209 6.31714 14.209 6.31714C14.209 6.31714 12.6146 7.21126 11.6451 5.53614Z" fill="#7BABFF"/>
<path d="M10.9504 5.42305C11.5572 5.42305 12.0492 4.9311 12.0492 4.32425C12.0492 3.71741 11.5572 3.22546 10.9504 3.22546C10.3435 3.22546 9.85156 3.71741 9.85156 4.32425C9.85156 4.9311 10.3435 5.42305 10.9504 5.42305Z" fill="#466DC6"/>
<path d="M11.6451 19.0825C12.6523 20.8277 10.9449 21.6949 10.9449 21.6949C10.9449 21.6949 9.23747 20.8223 10.2447 19.0825C9.28594 20.7469 7.69161 19.8851 7.69161 19.8851C7.69161 19.8851 7.43846 17.8706 9.54448 17.8706C7.55157 17.8706 7.61621 15.98 7.61621 15.98C7.61621 15.98 9.2267 14.9028 10.2447 16.6587C9.23747 14.9136 10.9449 14.0464 10.9449 14.0464C10.9449 14.0464 12.6523 14.919 11.6451 16.6587C12.6685 14.8866 14.279 15.9962 14.279 15.9962C14.279 15.9962 14.3221 17.8706 12.3453 17.8706C14.4352 17.8706 14.209 19.8635 14.209 19.8635C14.209 19.8635 12.6146 20.7577 11.6451 19.0825Z" fill="#7BABFF"/>
<path d="M10.9504 18.9694C11.5572 18.9694 12.0492 18.4775 12.0492 17.8706C12.0492 17.2638 11.5572 16.7719 10.9504 16.7719C10.3435 16.7719 9.85156 17.2638 9.85156 17.8706C9.85156 18.4775 10.3435 18.9694 10.9504 18.9694Z" fill="#466DC6"/>
<path d="M18.7874 25.1098C20.1771 24.3073 21.8953 19.9659 21.8953 19.9659C21.8953 19.9659 17.2739 19.2819 15.8842 20.0844C14.4946 20.887 12.7764 25.2283 12.7764 25.2283C12.7764 25.2283 17.3978 25.9124 18.7874 25.1098Z" fill="#004D30"/>
<path d="M3.10786 25.1098C4.49752 25.9124 9.11892 25.2283 9.11892 25.2283C9.11892 25.2283 7.4007 20.887 6.01105 20.0844C4.6214 19.2819 0 19.9659 0 19.9659C0 19.9659 1.71821 24.3073 3.10786 25.1098Z" fill="#004D30"/>
</svg>
