<svg width="19" height="25" viewBox="0 0 19 25" fill="none" xmlns="http://www.w3.org/2000/svg">
<path d="M3.70703 9.76364C3.70703 6.78812 9.08829 0 9.08829 0C9.08829 0 14.4695 6.79516 14.4695 9.76364C14.4695 12.7392 9.08829 19.5273 9.08829 19.5273C9.08829 19.5273 3.70703 12.7321 3.70703 9.76364Z" fill="#004D30"/>
<path d="M11.0438 9.76366C11.0438 12.2046 10.1857 15.8976 9.15161 19.4499C9.74249 18.6973 14.4696 12.5493 14.4696 9.76366C14.4696 6.97807 9.74249 0.830065 9.15161 0.0773926C10.1786 3.62973 11.0438 7.32275 11.0438 9.76366Z" fill="#718C4B"/>
<path d="M18.1837 22.4325H0V25H18.1837V22.4325Z" fill="#004D30"/>
</svg>
