<svg width="22" height="26" viewBox="0 0 22 26" fill="none" xmlns="http://www.w3.org/2000/svg">
<path d="M11.631 10.724H9.71436V25.0645H11.631V10.724Z" fill="#004D30"/>
<path d="M14.6292 6.19235C14.6292 8.05646 10.6175 12.3203 10.6175 12.3203C10.6175 12.3203 6.60571 8.05646 6.60571 6.19235C6.60571 4.32825 10.6175 0.0644531 10.6175 0.0644531C10.6175 0.0644531 14.6292 4.32825 14.6292 6.19235Z" fill="#BA2F8B"/>
<path d="M10.6016 6.69118C11.5363 8.30849 10.7381 13.6855 10.7381 13.6855C10.7381 13.6855 5.68142 11.6849 4.74675 10.0676C3.81207 8.45026 4.61022 3.07324 4.61022 3.07324C4.61022 3.07324 9.66693 5.07388 10.6016 6.69118Z" fill="#E851B8"/>
<path d="M10.7489 6.69118C9.81427 8.30849 10.6124 13.6855 10.6124 13.6855C10.6124 13.6855 15.6691 11.6849 16.6038 10.0676C17.5385 8.45026 16.7403 3.07324 16.7403 3.07324C16.7403 3.07324 11.6836 5.07388 10.7489 6.69118Z" fill="#E851B8"/>
<path d="M18.3208 20.8269C19.6756 20.0445 21.3506 15.8122 21.3506 15.8122C21.3506 15.8122 16.8453 15.1453 15.4905 15.9277C14.1358 16.7101 12.4607 20.9424 12.4607 20.9424C12.4607 20.9424 16.966 21.6093 18.3208 20.8269Z" fill="#004D30"/>
<path d="M3.02982 20.8269C4.38458 21.6093 8.88993 20.9424 8.88993 20.9424C8.88993 20.9424 7.21486 16.7101 5.86011 15.9277C4.50535 15.1453 0 15.8122 0 15.8122C0 15.8122 1.67507 20.0445 3.02982 20.8269Z" fill="#004D30"/>
</svg>
