<svg width="30" height="35" viewBox="0 0 30 35" fill="none" xmlns="http://www.w3.org/2000/svg">
<path d="M16.3753 15.9526H13.6858V35H16.3753V15.9526Z" fill="#004D30"/>
<path d="M25.7551 29.0537C27.6562 27.9558 30.0067 22.0168 30.0067 22.0168C30.0067 22.0168 23.6846 21.081 21.7836 22.1789C19.8825 23.2768 17.532 29.2158 17.532 29.2158C17.532 29.2158 23.8541 30.1516 25.7551 29.0537Z" fill="#004D30"/>
<path d="M4.30578 29.0537C6.20683 30.1516 12.5289 29.2158 12.5289 29.2158C12.5289 29.2158 10.1784 23.2768 8.27736 22.1789C6.3763 21.081 0.0541992 22.0168 0.0541992 22.0168C0.0541992 22.0168 2.40472 27.9558 4.30578 29.0537Z" fill="#004D30"/>
<path d="M16.5963 1.99687C18.2026 4.32529 20.5679 8.09056 20.5384 10.1169C20.4942 13.1748 14.85 20.079 14.85 20.079C14.85 20.079 9.41944 13.0053 9.46365 9.9474C9.49312 8.05371 11.6815 4.67161 13.3321 2.3874L15.2405 14.3832L16.6037 1.9895L16.5963 1.99687Z" fill="#004D30"/>
<path d="M15.1594 0C15.1594 0 15.7857 0.803158 16.611 1.99684L15.2184 14.7295L14.6215 14.7147L13.332 2.38737C14.3415 0.994737 15.152 0 15.152 0L15.1594 0Z" fill="#9EA267"/>
</svg>
