<svg width="30" height="35" viewBox="0 0 30 35" fill="none" xmlns="http://www.w3.org/2000/svg">
<path d="M16.338 14.9237H13.6548L13.6548 35.0003H16.338V14.9237Z" fill="#004D30"/>
<path d="M20.5357 8.57906C20.5357 11.1888 14.9192 17.1581 14.9192 17.1581C14.9192 17.1581 9.30273 11.1888 9.30273 8.57906C9.30273 5.96931 14.9192 0 14.9192 0C14.9192 0 20.5357 5.96931 20.5357 8.57906Z" fill="#BA2F8B"/>
<path d="M14.8966 9.27776C16.2052 11.542 15.0878 19.0698 15.0878 19.0698C15.0878 19.0698 8.00839 16.2689 6.69984 14.0047C5.39129 11.7405 6.5087 4.21265 6.5087 4.21265C6.5087 4.21265 13.5881 7.01354 14.8966 9.27776Z" fill="#E851B8"/>
<path d="M15.1022 9.27776C13.7936 11.542 14.911 19.0698 14.911 19.0698C14.911 19.0698 21.9904 16.2689 23.299 14.0047C24.6075 11.7405 23.4901 4.21265 23.4901 4.21265C23.4901 4.21265 16.4107 7.01354 15.1022 9.27776Z" fill="#E851B8"/>
<path d="M25.7042 29.0671C27.6008 27.9717 29.9459 22.0465 29.9459 22.0465C29.9459 22.0465 23.6384 21.1128 21.7418 22.2082C19.8451 23.3036 17.5 29.2288 17.5 29.2288C17.5 29.2288 23.8075 30.1624 25.7042 29.0671Z" fill="#004D30"/>
<path d="M4.29595 29.0671C6.19261 30.1624 12.5001 29.2288 12.5001 29.2288C12.5001 29.2288 10.155 23.3036 8.25835 22.2082C6.36169 21.1128 0.0541992 22.0465 0.0541992 22.0465C0.0541992 22.0465 2.39929 27.9717 4.29595 29.0671Z" fill="#004D30"/>
</svg>
