<svg width="1100" height="570" viewBox="0 0 1100 570" fill="none" xmlns="http://www.w3.org/2000/svg">
<path d="M455.353 553.746C447.903 562.737 452.11 566.288 455.263 567.945C455.725 568.189 456.284 568.195 456.753 567.958C460.035 566.32 464.119 562.827 456.522 553.74C456.554 553.688 455.308 553.695 455.353 553.74V553.746Z" fill="#E851B8"/>
<path d="M456.021 552.076C457.479 540.491 452.027 539.752 448.475 540.048C447.955 540.093 447.48 540.382 447.21 540.831C445.322 543.978 443.749 549.116 455.032 552.706C455.032 552.763 456.079 552.089 456.015 552.076H456.021Z" fill="#E851B8"/>
<path d="M455.141 552.667C444.615 547.619 442.188 552.551 441.34 556.013C441.218 556.52 441.34 557.06 441.687 557.458C444.07 560.245 448.449 563.36 455.424 553.797C455.481 553.817 455.173 552.609 455.141 552.667Z" fill="#E851B8"/>
<path d="M456.818 552.667C467.343 547.619 469.771 552.551 470.618 556.013C470.74 556.52 470.618 557.06 470.272 557.458C467.889 560.245 463.509 563.36 456.535 553.797C456.477 553.817 456.785 552.609 456.818 552.667Z" fill="#E851B8"/>
<path d="M455.989 552.076C454.531 540.491 459.984 539.752 463.535 540.048C464.055 540.093 464.53 540.382 464.8 540.831C466.688 543.978 468.261 549.116 456.978 552.706C456.978 552.763 455.931 552.089 455.995 552.076H455.989Z" fill="#E851B8"/>
<path d="M456.008 550.785L453.998 552.25L454.763 554.619H457.254L458.025 552.25L456.008 550.785Z" fill="#BA2F8B"/>
<path d="M456.021 557.464C456.681 557.464 457.216 556.929 457.216 556.27C457.216 555.61 456.681 555.075 456.021 555.075C455.361 555.075 454.827 555.61 454.827 556.27C454.827 556.929 455.361 557.464 456.021 557.464Z" fill="#BA2F8B"/>
<path d="M452.836 555.114C453.496 555.114 454.03 554.579 454.03 553.919C454.03 553.26 453.496 552.725 452.836 552.725C452.176 552.725 451.641 553.26 451.641 553.919C451.641 554.579 452.176 555.114 452.836 555.114Z" fill="#BA2F8B"/>
<path d="M459.187 555.114C459.847 555.114 460.382 554.579 460.382 553.919C460.382 553.26 459.847 552.725 459.187 552.725C458.527 552.725 457.993 553.26 457.993 553.919C457.993 554.579 458.527 555.114 459.187 555.114Z" fill="#BA2F8B"/>
<path d="M454.075 551.389C454.735 551.389 455.27 550.854 455.27 550.195C455.27 549.535 454.735 549 454.075 549C453.415 549 452.881 549.535 452.881 550.195C452.881 550.854 453.415 551.389 454.075 551.389Z" fill="#BA2F8B"/>
<path d="M457.993 551.389C458.652 551.389 459.187 550.854 459.187 550.195C459.187 549.535 458.652 549 457.993 549C457.333 549 456.798 549.535 456.798 550.195C456.798 550.854 457.333 551.389 457.993 551.389Z" fill="#BA2F8B"/>
<path d="M442.991 563.116C444.339 561.767 449.875 561.125 449.875 561.125C449.875 561.125 449.233 566.661 447.884 568.009C446.536 569.358 441 570 441 570C441 570 441.642 564.464 442.991 563.116Z" fill="#004D30"/>
<path d="M468.769 563.116C467.42 561.767 461.884 561.125 461.884 561.125C461.884 561.125 462.526 566.661 463.875 568.009C465.224 569.358 470.759 570 470.759 570C470.759 570 470.117 564.464 468.769 563.116Z" fill="#004D30"/>
<path d="M15.9656 261.789C15.9331 261.743 15.9006 261.704 15.8616 261.665C29.4536 246.057 1.08591 246.09 14.8796 261.776C14.847 261.815 14.821 261.854 14.795 261.899C-0.988662 247.995 -0.949641 276.759 14.9121 262.647C14.9381 262.68 14.9706 262.699 15.0096 262.725C0.864798 278.613 29.7137 278.639 15.712 262.81C15.751 262.79 15.79 262.764 15.8225 262.732C31.5542 276.616 31.5997 248.171 15.9721 261.795L15.9656 261.789Z" fill="#E9B219"/>
<path d="M13.8328 262.309C14.605 262.309 15.231 261.683 15.231 260.911C15.231 260.138 14.605 259.512 13.8328 259.512C13.0606 259.512 12.4346 260.138 12.4346 260.911C12.4346 261.683 13.0606 262.309 13.8328 262.309Z" fill="#AD6F0B"/>
<path d="M17.1104 262.419C17.8826 262.419 18.5086 261.793 18.5086 261.021C18.5086 260.249 17.8826 259.623 17.1104 259.623C16.3382 259.623 15.7122 260.249 15.7122 261.021C15.7122 261.793 16.3382 262.419 17.1104 262.419Z" fill="#AD6F0B"/>
<path d="M15.3219 265.125C16.0941 265.125 16.7202 264.499 16.7202 263.727C16.7202 262.954 16.0941 262.328 15.3219 262.328C14.5497 262.328 13.9237 262.954 13.9237 263.727C13.9237 264.499 14.5497 265.125 15.3219 265.125Z" fill="#AD6F0B"/>
<path d="M27.9841 253.972C26.6184 255.337 21.0125 255.988 21.0125 255.988C21.0125 255.988 21.6628 250.382 23.0285 249.016C24.3942 247.65 30.0001 247 30.0001 247C30.0001 247 29.3498 252.606 27.9841 253.972Z" fill="#004D30"/>
<path d="M2.01604 253.972C3.38175 255.337 8.98766 255.988 8.98766 255.988C8.98766 255.988 8.33732 250.382 6.97161 249.016C5.6059 247.65 0 247 0 247C0 247 0.650337 252.606 2.01604 253.972Z" fill="#004D30"/>
<path d="M27.9841 270.028C26.6184 268.663 21.0125 268.012 21.0125 268.012C21.0125 268.012 21.6628 273.618 23.0285 274.984C24.3942 276.35 30.0001 277 30.0001 277C30.0001 277 29.3498 271.394 27.9841 270.028Z" fill="#004D30"/>
<path d="M2.01604 270.028C3.38175 268.663 8.98766 268.012 8.98766 268.012C8.98766 268.012 8.33732 273.618 6.97161 274.984C5.6059 276.35 0 277 0 277C0 277 0.650337 271.394 2.01604 270.028Z" fill="#004D30"/>
<path d="M1085.85 26.3637H1083.55V46H1085.85V26.3637Z" fill="#004D30"/>
<path d="M1093.88 40.9096C1095.51 39.9697 1097.52 34.8856 1097.52 34.8856C1097.52 34.8856 1092.11 34.0845 1090.48 35.0244C1088.85 35.9642 1086.84 41.0484 1086.84 41.0484C1086.84 41.0484 1092.25 41.8495 1093.88 40.9096Z" fill="#004D30"/>
<path d="M1075.52 40.9096C1077.15 41.8495 1082.56 41.0484 1082.56 41.0484C1082.56 41.0484 1080.55 35.9642 1078.92 35.0244C1077.29 34.0845 1071.88 34.8856 1071.88 34.8856C1071.88 34.8856 1073.89 39.9697 1075.52 40.9096Z" fill="#004D30"/>
<path d="M1077.98 23.8469C1080.41 23.8469 1085.96 27.6695 1085.96 27.6695C1085.96 27.6695 1080.41 31.492 1077.98 31.492C1075.55 31.492 1070 27.6695 1070 27.6695C1070 27.6695 1075.55 23.8469 1077.98 23.8469Z" fill="#E9B219"/>
<path d="M1091.23 23.8469C1093.66 23.8469 1099.21 27.6695 1099.21 27.6695C1099.21 27.6695 1093.66 31.492 1091.23 31.492C1088.8 31.492 1083.25 27.6695 1083.25 27.6695C1083.25 27.6695 1088.8 23.8469 1091.23 23.8469Z" fill="#E9B219"/>
<path d="M1089.65 18.4538C1089.65 18.4538 1088.54 18.8953 1087.37 19.4945C1086.44 17.8923 1084.66 16 1084.66 16C1084.66 16 1082.91 17.8608 1081.97 19.4567C1080.82 18.87 1079.76 18.4538 1079.76 18.4538C1079.76 18.4538 1079.11 22.8377 1079.87 24.156C1080.56 25.3482 1083.99 26.7927 1084.64 27.0576C1084.64 27.0891 1084.65 27.1018 1084.65 27.1018C1084.65 27.1018 1084.67 27.0955 1084.7 27.0828C1084.73 27.0955 1084.76 27.1018 1084.76 27.1018C1084.76 27.1018 1084.76 27.0828 1084.77 27.0576C1085.42 26.7927 1088.85 25.3482 1089.54 24.156C1090.3 22.8377 1089.65 18.4538 1089.65 18.4538Z" fill="#C9831C"/>
<path d="M430.213 12.7478H427.907V30H430.213V12.7478Z" fill="#004D30"/>
<path d="M429.063 5.98212C429.063 -2.90613 422.203 -1.21944 426.397 6.63911C422.203 -1.21944 416.915 3.46788 424.338 8.45844C416.915 3.46788 414.407 10.0693 423.365 11.0295C414.407 10.0756 415.26 17.0877 423.693 13.7586C415.26 17.0877 419.271 22.9058 425.254 16.0201C419.271 22.9058 425.525 26.1844 427.686 17.2962C425.525 26.1844 432.594 26.1844 430.434 17.2962C432.594 26.1844 438.848 22.9058 432.866 16.0201C438.848 22.9058 442.86 17.0877 434.426 13.7586C442.86 17.0877 443.713 10.0756 434.755 11.0295C443.713 10.0756 441.205 3.46788 433.782 8.45844C441.205 3.46788 435.917 -1.21944 431.723 6.63911C435.917 -1.21944 429.057 -2.90613 429.057 5.98212H429.063Z" fill="#FF5319"/>
<path d="M429.063 15.5337C431.027 15.5337 432.619 13.9414 432.619 11.9771C432.619 10.0129 431.027 8.42056 429.063 8.42056C427.099 8.42056 425.506 10.0129 425.506 11.9771C425.506 13.9414 427.099 15.5337 429.063 15.5337Z" fill="#D13819"/>
<path d="M1048.58 297.616C1049.48 296.718 1049.91 293.034 1049.91 293.034C1049.91 293.034 1046.22 293.459 1045.32 294.357C1044.43 295.255 1044 298.939 1044 298.939C1044 298.939 1047.68 298.514 1048.58 297.616Z" fill="#004D30"/>
<path d="M1065.51 297.616C1064.61 296.718 1064.19 293.034 1064.19 293.034C1064.19 293.034 1067.87 293.459 1068.77 294.357C1069.67 295.255 1070.09 298.939 1070.09 298.939C1070.09 298.939 1066.41 298.514 1065.51 297.616Z" fill="#004D30"/>
<path d="M1059.35 276.174C1059.35 277.445 1057.05 280.348 1057.05 280.348C1057.05 280.348 1054.74 277.445 1054.74 276.174C1054.74 274.903 1057.05 272 1057.05 272C1057.05 272 1059.35 274.903 1059.35 276.174Z" fill="#004D30"/>
<path d="M1051.62 283.117C1053.25 280.302 1050.49 278.897 1050.49 278.897C1050.49 278.897 1047.74 280.302 1049.36 283.117C1047.81 280.43 1045.24 281.823 1045.24 281.823C1045.24 281.823 1044.83 285.07 1048.23 285.07C1045.01 285.07 1045.12 288.125 1045.12 288.125C1045.12 288.125 1047.73 289.868 1049.36 287.023C1047.74 289.839 1050.49 291.244 1050.49 291.244C1050.49 291.244 1053.25 289.839 1051.63 287.023C1053.27 289.886 1055.88 288.096 1055.88 288.096C1055.88 288.096 1055.95 285.065 1052.76 285.065C1056.13 285.065 1055.76 281.846 1055.76 281.846C1055.76 281.846 1053.19 280.401 1051.63 283.112L1051.62 283.117Z" fill="#FF5319"/>
<path d="M1050.49 286.848C1051.47 286.848 1052.27 286.055 1052.27 285.076C1052.27 284.097 1051.47 283.304 1050.49 283.304C1049.52 283.304 1048.72 284.097 1048.72 285.076C1048.72 286.055 1049.52 286.848 1050.49 286.848Z" fill="#D13819"/>
<path d="M1064.86 282.948C1066.49 280.133 1063.73 278.728 1063.73 278.728C1063.73 278.728 1060.98 280.133 1062.6 282.948C1061.05 280.261 1058.49 281.654 1058.49 281.654C1058.49 281.654 1058.08 284.901 1061.48 284.901C1058.26 284.901 1058.37 287.956 1058.37 287.956C1058.37 287.956 1060.97 289.699 1062.61 286.854C1060.98 289.67 1063.74 291.075 1063.74 291.075C1063.74 291.075 1066.49 289.67 1064.87 286.854C1066.52 289.717 1069.13 287.927 1069.13 287.927C1069.13 287.927 1069.2 284.895 1066 284.895C1069.37 284.895 1069.01 281.677 1069.01 281.677C1069.01 281.677 1066.43 280.232 1064.87 282.942L1064.86 282.948Z" fill="#FF5319"/>
<path d="M1063.75 286.674C1064.72 286.674 1065.52 285.88 1065.52 284.901C1065.52 283.923 1064.72 283.129 1063.75 283.129C1062.77 283.129 1061.97 283.923 1061.97 284.901C1061.97 285.88 1062.77 286.674 1063.75 286.674Z" fill="#D13819"/>
<path d="M1058.17 293.873C1059.79 291.058 1057.04 289.653 1057.04 289.653C1057.04 289.653 1054.28 291.058 1055.9 293.873C1054.35 291.186 1051.79 292.579 1051.79 292.579C1051.79 292.579 1051.38 295.826 1054.78 295.826C1051.56 295.826 1051.67 298.881 1051.67 298.881C1051.67 298.881 1054.27 300.624 1055.91 297.779C1054.28 300.595 1057.04 302 1057.04 302C1057.04 302 1059.79 300.595 1058.17 297.779C1059.82 300.642 1062.43 298.852 1062.43 298.852C1062.43 298.852 1062.5 295.82 1059.3 295.82C1062.67 295.82 1062.31 292.602 1062.31 292.602C1062.31 292.602 1059.73 291.157 1058.17 293.867L1058.17 293.873Z" fill="#FF5319"/>
<path d="M1057.05 297.599C1058.03 297.599 1058.82 296.805 1058.82 295.826C1058.82 294.847 1058.03 294.054 1057.05 294.054C1056.07 294.054 1055.27 294.847 1055.27 295.826C1055.27 296.805 1056.07 297.599 1057.05 297.599Z" fill="#D13819"/>
<path d="M1015.32 505.964H1012.96V530.997H1015.32V505.964Z" fill="#004D30"/>
<path d="M1006.88 515.323C1006.25 517.656 1004.07 516.945 1004.07 516.945C1004.07 516.945 1003.36 514.761 1005.69 514.134C1003.47 514.728 1002.85 512.647 1002.85 512.647C1002.85 512.647 1004.34 510.721 1006.13 512.512C1004.43 510.818 1006.1 509.273 1006.1 509.273C1006.1 509.273 1008.38 509.726 1007.75 512.078C1008.37 509.745 1010.56 510.456 1010.56 510.456C1010.56 510.456 1011.27 512.641 1008.94 513.268C1011.31 512.634 1011.74 514.942 1011.74 514.942C1011.74 514.942 1010.18 516.571 1008.5 514.89C1010.28 516.661 1008.39 518.161 1008.39 518.161C1008.39 518.161 1006.28 517.566 1006.88 515.323Z" fill="#7BABFF"/>
<path d="M1007.31 515.026C1008.04 515.026 1008.63 514.435 1008.63 513.707C1008.63 512.979 1008.04 512.389 1007.31 512.389C1006.59 512.389 1006 512.979 1006 513.707C1006 514.435 1006.59 515.026 1007.31 515.026Z" fill="#466DC6"/>
<path d="M1021.64 515.323C1022.27 517.656 1024.46 516.945 1024.46 516.945C1024.46 516.945 1025.17 514.761 1022.83 514.134C1025.06 514.728 1025.68 512.647 1025.68 512.647C1025.68 512.647 1024.18 510.721 1022.4 512.512C1024.09 510.818 1022.43 509.273 1022.43 509.273C1022.43 509.273 1020.14 509.726 1020.78 512.078C1020.15 509.745 1017.97 510.456 1017.97 510.456C1017.97 510.456 1017.26 512.641 1019.59 513.268C1017.22 512.634 1016.79 514.942 1016.79 514.942C1016.79 514.942 1018.34 516.571 1020.02 514.89C1018.25 516.661 1020.13 518.161 1020.13 518.161C1020.13 518.161 1022.25 517.566 1021.64 515.323Z" fill="#7BABFF"/>
<path d="M1021.2 515.026C1021.93 515.026 1022.52 514.435 1022.52 513.707C1022.52 512.979 1021.93 512.389 1021.2 512.389C1020.48 512.389 1019.89 512.979 1019.89 513.707C1019.89 514.435 1020.48 515.026 1021.2 515.026Z" fill="#466DC6"/>
<path d="M1014.97 507.043C1016.18 509.138 1014.13 510.178 1014.13 510.178C1014.13 510.178 1012.08 509.131 1013.29 507.043C1012.14 509.041 1010.23 508.006 1010.23 508.006C1010.23 508.006 1009.93 505.589 1012.45 505.589C1010.06 505.589 1010.14 503.32 1010.14 503.32C1010.14 503.32 1012.07 502.028 1013.29 504.135C1012.08 502.041 1014.13 501 1014.13 501C1014.13 501 1016.18 502.047 1014.97 504.135C1016.2 502.008 1018.13 503.34 1018.13 503.34C1018.13 503.34 1018.19 505.589 1015.81 505.589C1018.32 505.589 1018.05 507.981 1018.05 507.981C1018.05 507.981 1016.14 509.054 1014.97 507.043Z" fill="#7BABFF"/>
<path d="M1014.14 506.908C1014.87 506.908 1015.46 506.317 1015.46 505.589C1015.46 504.861 1014.87 504.271 1014.14 504.271C1013.41 504.271 1012.82 504.861 1012.82 505.589C1012.82 506.317 1013.41 506.908 1014.14 506.908Z" fill="#466DC6"/>
<path d="M1014.97 523.299C1016.18 525.393 1014.13 526.434 1014.13 526.434C1014.13 526.434 1012.08 525.387 1013.29 523.299C1012.14 525.296 1010.23 524.262 1010.23 524.262C1010.23 524.262 1009.93 521.845 1012.45 521.845C1010.06 521.845 1010.14 519.576 1010.14 519.576C1010.14 519.576 1012.07 518.283 1013.29 520.391C1012.08 518.296 1014.13 517.256 1014.13 517.256C1014.13 517.256 1016.18 518.303 1014.97 520.391C1016.2 518.264 1018.13 519.595 1018.13 519.595C1018.13 519.595 1018.19 521.845 1015.81 521.845C1018.32 521.845 1018.05 524.236 1018.05 524.236C1018.05 524.236 1016.14 525.309 1014.97 523.299Z" fill="#7BABFF"/>
<path d="M1014.14 523.163C1014.87 523.163 1015.46 522.573 1015.46 521.845C1015.46 521.117 1014.87 520.526 1014.14 520.526C1013.41 520.526 1012.82 521.117 1012.82 521.845C1012.82 522.573 1013.41 523.163 1014.14 523.163Z" fill="#466DC6"/>
<path d="M1023.54 530.532C1025.21 529.569 1027.27 524.359 1027.27 524.359C1027.27 524.359 1021.73 523.538 1020.06 524.501C1018.39 525.464 1016.33 530.674 1016.33 530.674C1016.33 530.674 1021.88 531.495 1023.54 530.532Z" fill="#004D30"/>
<path d="M1004.73 530.532C1006.4 531.495 1011.94 530.674 1011.94 530.674C1011.94 530.674 1009.88 525.464 1008.21 524.501C1006.55 523.538 1001 524.359 1001 524.359C1001 524.359 1003.06 529.569 1004.73 530.532Z" fill="#004D30"/>
<path d="M99.3954 508.934C99.3954 508.934 98.8608 514.782 97.2829 515.434C95.1117 516.327 88.3633 512.676 86.0095 512.82C88.0569 511.659 92.0537 505.647 94.2901 505.237C95.8419 504.95 99.3889 508.94 99.3889 508.94L99.3954 508.934Z" fill="#7BABFF"/>
<path d="M91.0951 502.172C91.3885 504.5 86.5245 510.492 86.0094 512.807C85.5073 510.492 80.6237 504.474 80.9237 502.153C81.1258 500.601 85.9963 498.469 85.9963 498.469C85.9963 498.469 90.8995 500.607 91.0951 502.172Z" fill="#7BABFF"/>
<path d="M96.0701 518.981C96.7222 520.266 94.2836 524.471 94.2836 524.471C94.2836 524.471 89.0675 525.612 87.9786 524.471C86.3616 522.782 86.8637 515.069 86.0095 512.807C87.8482 514.424 95.0008 516.869 96.0701 518.975V518.981Z" fill="#7BABFF"/>
<path d="M86.0093 512.813C85.1551 515.063 85.8528 522.756 84.2684 524.484C83.2056 525.645 77.9699 524.484 77.9699 524.484C77.9699 524.484 75.5183 520.253 76.1704 518.949C77.2005 516.895 84.1771 514.424 86.0093 512.813Z" fill="#7BABFF"/>
<path d="M86.0094 512.813C83.6752 512.657 76.8616 516.282 74.6969 515.389C73.1255 514.743 72.5974 508.934 72.5974 508.934C72.5974 508.934 76.1705 504.917 77.7223 505.211C79.9522 505.634 83.9621 511.652 86.0029 512.813H86.0094Z" fill="#7BABFF"/>
<path d="M84.4184 511.066C83.4665 511.757 83.0688 512.976 83.4339 514.098C83.799 515.212 84.8357 515.969 86.0093 515.969C87.183 515.969 88.2262 515.212 88.5848 514.098C88.95 512.983 88.5522 511.757 87.6003 511.066C86.6483 510.375 85.3639 510.375 84.4184 511.066Z" fill="#466DC6"/>
<path d="M76.7638 496.669C75.6358 495.541 71 495 71 495C71 495 71.5347 499.629 72.6692 500.764C73.8037 501.898 78.433 502.433 78.433 502.433C78.433 502.433 77.8983 497.804 76.7638 496.669Z" fill="#004D30"/>
<path d="M94.6748 496.832C95.9136 495.593 100.999 495.007 100.999 495.007C100.999 495.007 100.413 500.086 99.1737 501.331C97.9348 502.57 92.8491 503.157 92.8491 503.157C92.8491 503.157 93.4359 498.078 94.6748 496.832Z" fill="#004D30"/>
<path d="M109.957 37.7915H107.657V55H109.957V37.7915Z" fill="#004D30"/>
<path d="M113.555 32.3535C113.555 34.5904 108.741 39.707 108.741 39.707C108.741 39.707 103.927 34.5904 103.927 32.3535C103.927 30.1166 108.741 25 108.741 25C108.741 25 113.555 30.1166 113.555 32.3535Z" fill="#BA2F8B"/>
<path d="M108.722 32.9521C109.844 34.8929 108.886 41.3453 108.886 41.3453C108.886 41.3453 102.818 38.9445 101.696 37.0038C100.575 35.063 101.532 28.6106 101.532 28.6106C101.532 28.6106 107.6 31.0113 108.722 32.9521Z" fill="#E851B8"/>
<path d="M108.899 32.9521C107.777 34.8929 108.735 41.3453 108.735 41.3453C108.735 41.3453 114.803 38.9445 115.924 37.0038C117.046 35.063 116.088 28.6106 116.088 28.6106C116.088 28.6106 110.02 31.0113 108.899 32.9521Z" fill="#E851B8"/>
<path d="M117.985 49.9149C119.61 48.9761 121.621 43.8973 121.621 43.8973C121.621 43.8973 116.214 43.097 114.588 44.0359C112.963 44.9748 110.953 50.0536 110.953 50.0536C110.953 50.0536 116.359 50.8538 117.985 49.9149Z" fill="#004D30"/>
<path d="M99.6358 49.9149C101.261 50.8538 106.668 50.0536 106.668 50.0536C106.668 50.0536 104.658 44.9748 103.032 44.0359C101.406 43.097 96 43.8973 96 43.8973C96 43.8973 98.0101 48.9761 99.6358 49.9149Z" fill="#004D30"/>
<path d="M931.833 110.531C933.489 109.574 935.538 104.399 935.538 104.399C935.538 104.399 930.028 103.583 928.372 104.54C926.715 105.497 924.667 110.673 924.667 110.673C924.667 110.673 930.176 111.488 931.833 110.531Z" fill="#004D30"/>
<path d="M909.705 110.531C911.362 111.488 916.871 110.673 916.871 110.673C916.871 110.673 914.823 105.497 913.166 104.54C911.509 103.583 906 104.399 906 104.399C906 104.399 908.048 109.574 909.705 110.531Z" fill="#004D30"/>
<path d="M921.944 93.4636H919.6V111H921.944V93.4636Z" fill="#004D30"/>
<path d="M923.113 87.6652C921.52 89.2577 920.769 95.7624 920.769 95.7624C920.769 95.7624 927.28 95.0111 928.866 93.4187C930.458 91.8262 931.21 85.3215 931.21 85.3215C931.21 85.3215 924.699 86.0728 923.113 87.6652Z" fill="#BA2F8B"/>
<path d="M918.425 87.6652C920.018 89.2577 920.769 95.7624 920.769 95.7624C920.769 95.7624 914.258 95.0111 912.672 93.4187C911.079 91.8262 910.328 85.3215 910.328 85.3215C910.328 85.3215 916.839 86.0728 918.425 87.6652Z" fill="#BA2F8B"/>
<path d="M924.84 88.3844C924.84 90.6318 920.769 95.7688 920.769 95.7688C920.769 95.7688 916.698 90.6318 916.698 88.3844C916.698 86.137 920.769 81 920.769 81C920.769 81 924.84 86.137 924.84 88.3844Z" fill="#E851B8"/>
<path d="M913.384 91.6978C915.632 91.6978 920.769 95.7688 920.769 95.7688C920.769 95.7688 915.632 99.8399 913.384 99.8399C911.137 99.8399 906 95.7688 906 95.7688C906 95.7688 911.137 91.6978 913.384 91.6978Z" fill="#E851B8"/>
<path d="M928.153 91.6978C925.906 91.6978 920.769 95.7688 920.769 95.7688C920.769 95.7688 925.906 99.8399 928.153 99.8399C930.401 99.8399 935.538 95.7688 935.538 95.7688C935.538 95.7688 930.401 91.6978 928.153 91.6978Z" fill="#E851B8"/>
</svg>
