<svg width="26" height="35" viewBox="0 0 26 35" fill="none" xmlns="http://www.w3.org/2000/svg">
<path d="M5.24402 13.6691C5.24402 9.50337 12.7778 0 12.7778 0C12.7778 0 20.3115 9.51322 20.3115 13.6691C20.3115 17.8348 12.7778 27.3382 12.7778 27.3382C12.7778 27.3382 5.24402 17.825 5.24402 13.6691Z" fill="#004D30"/>
<path d="M15.5156 13.6691C15.5156 17.0864 14.3141 22.2566 12.8665 27.2299C13.6937 26.1761 20.3116 17.5689 20.3116 13.6691C20.3116 9.76928 13.6937 1.16208 12.8665 0.108337C14.3043 5.0816 15.5156 10.2518 15.5156 13.6691Z" fill="#718C4B"/>
<path d="M25.5113 31.4055H0.0540771V35H25.5113V31.4055Z" fill="#004D30"/>
</svg>
