<svg width="24" height="13" viewBox="0 0 24 13" fill="none" xmlns="http://www.w3.org/2000/svg">
<path d="M10.2 8.62C10.2 9.34 10 9.96667 9.6 10.5C9.21333 11.0333 8.66 11.4533 7.94 11.76C7.22 12.0533 6.34 12.2 5.3 12.2C4.40667 12.2 3.52667 12.08 2.66 11.84C1.80667 11.6 1.12 11.2867 0.6 10.9L1.54 8.94C2.02 9.3 2.60667 9.58667 3.3 9.8C3.99333 10.0133 4.7 10.12 5.42 10.12C6.27333 10.12 6.86667 9.99333 7.2 9.74C7.53333 9.48667 7.7 9.18667 7.7 8.84C7.7 8.52 7.57333 8.26667 7.32 8.08C7.08 7.89333 6.75333 7.74667 6.34 7.64C5.94 7.52 5.5 7.41333 5.02 7.32C4.54 7.21333 4.06 7.09333 3.58 6.96C3.1 6.82667 2.66 6.64 2.26 6.4C1.86 6.16 1.53333 5.84 1.28 5.44C1.04 5.04 0.92 4.53333 0.92 3.92C0.92 3.21333 1.12 2.59333 1.52 2.06C1.92 1.52667 2.48 1.11333 3.2 0.82C3.93333 0.526666 4.79333 0.379999 5.78 0.379999C6.48667 0.379999 7.19333 0.46 7.9 0.62C8.62 0.766666 9.24667 1.01333 9.78 1.36L8.92 3.32C8.41333 2.98667 7.88 2.76 7.32 2.64C6.77333 2.50667 6.23333 2.44 5.7 2.44C4.9 2.44 4.32 2.56667 3.96 2.82C3.61333 3.07333 3.44 3.39333 3.44 3.78C3.44 4.1 3.56 4.35333 3.8 4.54C4.05333 4.72667 4.38 4.88 4.78 5C5.18 5.10667 5.62 5.20667 6.1 5.3C6.59333 5.39333 7.07333 5.51333 7.54 5.66C8.02 5.79333 8.46 5.98 8.86 6.22C9.27333 6.44667 9.6 6.75333 9.84 7.14C10.08 7.52667 10.2 8.02 10.2 8.62ZM14.9603 12V0.559999H17.4803V9.96H23.3603V12H14.9603Z" fill="#DADADA"/>
</svg>
