<svg width="23" height="15" viewBox="0 0 23 15" fill="none" xmlns="http://www.w3.org/2000/svg">
<path d="M6.79545 6.21016C7.35 6.21016 7.88183 5.99207 8.27395 5.60386C8.66607 5.21565 8.88636 4.68912 8.88636 4.14011C8.88636 3.5911 8.66607 3.06457 8.27395 2.67636C7.88183 2.28815 7.35 2.07005 6.79545 2.07005H2.09091V6.21016H6.79545ZM7.84091 8.28022H2.09091V12.4203H7.84091C8.39545 12.4203 8.92728 12.2022 9.3194 11.814C9.71153 11.4258 9.93182 10.8993 9.93182 10.3503C9.93182 9.80126 9.71153 9.27473 9.3194 8.88652C8.92728 8.49831 8.39545 8.28022 7.84091 8.28022ZM9.99768 6.8022C10.7813 7.26868 11.3889 7.97657 11.7274 8.81748C12.0659 9.65839 12.1167 10.586 11.872 11.4582C11.6273 12.3304 11.1007 13.0992 10.3726 13.6468C9.64455 14.1945 8.75526 14.4908 7.84091 14.4904H0V1.82167e-08H6.79545C7.59173 -7.39199e-05 8.37148 0.224929 9.04302 0.648556C9.71456 1.07218 10.25 1.67682 10.5863 2.39138C10.9226 3.10594 11.0459 3.90072 10.9417 4.68226C10.8374 5.46381 10.5099 6.19964 9.99768 6.80323M15.1591 1.03503H20.9091V2.58757H15.1591V1.03503ZM23 9.83276H15.1591V10.0915C15.1589 10.7309 15.3761 11.3517 15.7757 11.854C16.1754 12.3562 16.7342 12.7106 17.3621 12.86C17.9901 13.0095 18.6505 12.9453 19.2371 12.6777C19.8236 12.4102 20.3021 11.9549 20.5955 11.3853H22.8265C22.5079 12.5324 21.7803 13.5263 20.7782 14.1829C19.7762 14.8396 18.5678 15.1144 17.3767 14.9565C16.1857 14.7986 15.0929 14.2186 14.3007 13.3241C13.5085 12.4296 13.0706 11.2812 13.0682 10.0915V8.53897C13.0682 7.23507 13.5914 5.98457 14.5227 5.06257C15.454 4.14057 16.717 3.6226 18.0341 3.6226C19.3511 3.6226 20.6142 4.14057 21.5455 5.06257C22.4768 5.98457 23 7.23507 23 8.53897V9.83276ZM20.8004 7.7627C20.6292 7.16703 20.2665 6.64286 19.7673 6.26964C19.2681 5.89641 18.6596 5.6945 18.0341 5.6945C17.4085 5.6945 16.8001 5.89641 16.3009 6.26964C15.8017 6.64286 15.439 7.16703 15.2678 7.7627H20.8004Z" fill="#EDEDE5"/>
</svg>
