<svg width="16" height="10" viewBox="0 0 16 10" fill="none" xmlns="http://www.w3.org/2000/svg">
<path d="M4.64491 4.14011C5.01092 4.14011 5.36193 3.99471 5.62074 3.73591C5.87955 3.4771 6.02494 3.12608 6.02494 2.76007C6.02494 2.39406 5.87955 2.04305 5.62074 1.78424C5.36193 1.52543 5.01092 1.38004 4.64491 1.38004H1.53983V4.14011H4.64491ZM5.33493 5.52014H1.53983V8.28022H5.33493C5.70093 8.28022 6.05195 8.13482 6.31076 7.87601C6.56957 7.61721 6.71496 7.26619 6.71496 6.90018C6.71496 6.53417 6.56957 6.18316 6.31076 5.92435C6.05195 5.66554 5.70093 5.52014 5.33493 5.52014ZM6.75843 4.5348C7.27562 4.84579 7.67664 5.31771 7.90007 5.87832C8.1235 6.43892 8.15703 7.05731 7.99553 7.63879C7.83404 8.22027 7.48641 8.73279 7.00589 9.09788C6.52536 9.46298 5.93842 9.66052 5.33493 9.66025H0.15979V1.21444e-08H4.64491C5.17047 -4.92799e-05 5.68511 0.149953 6.12834 0.43237C6.57157 0.714788 6.92495 1.11788 7.14694 1.59425C7.36893 2.07063 7.45029 2.60048 7.38147 3.12151C7.31265 3.64254 7.0965 4.13309 6.75843 4.53549M10.1651 0.690018H13.9602V1.72505H10.1651V0.690018ZM15.3402 6.55517H10.1651V6.72768C10.1649 7.15393 10.3083 7.56782 10.572 7.90264C10.8358 8.23747 11.2047 8.47373 11.6191 8.57336C12.0335 8.67299 12.4695 8.63017 12.8566 8.45181C13.2437 8.27346 13.5596 7.96995 13.7531 7.5902H15.2256C15.0154 8.35493 14.5351 9.01755 13.8738 9.45529C13.2124 9.89304 12.4148 10.0763 11.6287 9.97098C10.8427 9.86571 10.1214 9.47909 9.5985 8.88275C9.07564 8.28642 8.78663 7.52078 8.78502 6.72768V5.69265C8.78502 4.82338 9.13033 3.98971 9.745 3.37505C10.3597 2.76038 11.1933 2.41506 12.0626 2.41506C12.9319 2.41506 13.7655 2.76038 14.3802 3.37505C14.9949 3.98971 15.3402 4.82338 15.3402 5.69265V6.55517ZM13.8884 5.17514C13.7754 4.77802 13.536 4.42857 13.2066 4.17976C12.8771 3.93094 12.4755 3.79633 12.0626 3.79633C11.6497 3.79633 11.2481 3.93094 10.9186 4.17976C10.5892 4.42857 10.3498 4.77802 10.2368 5.17514H13.8884Z" fill="#004D30"/>
</svg>
