<svg width="15" height="8" viewBox="0 0 15 8" fill="none" xmlns="http://www.w3.org/2000/svg">
<path d="M9.20801 7H10.9786C11.7743 7 12.5373 6.68393 13.1 6.12132C13.6626 5.55871 13.9786 4.79565 13.9786 4C13.9786 3.20435 13.6626 2.44129 13.1 1.87868C12.5373 1.31607 11.7743 1 10.9786 1H9.24708M5.7102 1H3.97864C3.18299 1 2.41993 1.31607 1.85732 1.87868C1.29471 2.44129 0.978638 3.20435 0.978638 4C0.978638 4.79565 1.29471 5.55871 1.85732 6.12132C2.41993 6.68393 3.18299 7 3.97864 7H5.74926M10.1952 4H4.69958" stroke="#004D30" stroke-width="1.5" stroke-linecap="square" stroke-linejoin="round"/>
</svg>
