<svg width="13" height="10" viewBox="0 0 13 10" fill="none" xmlns="http://www.w3.org/2000/svg">
<path d="M1.59021 10C1.24646 10 0.952293 9.87771 0.70771 9.63312C0.463127 9.38854 0.340627 9.09417 0.34021 8.75V1.25C0.34021 0.90625 0.46271 0.612083 0.70771 0.3675C0.95271 0.122917 1.24688 0.000416667 1.59021 0H11.5902C11.934 0 12.2283 0.1225 12.4733 0.3675C12.7183 0.6125 12.8406 0.906667 12.8402 1.25V8.75C12.8402 9.09375 12.7179 9.38812 12.4733 9.63312C12.2288 9.87812 11.9344 10.0004 11.5902 10H1.59021ZM6.59021 5.625L1.59021 2.5V8.75H11.5902V2.5L6.59021 5.625ZM6.59021 4.375L11.5902 1.25H1.59021L6.59021 4.375ZM1.59021 2.5V1.25V8.75V2.5Z" fill="#004D30"/>
</svg>
