<svg width="361" height="84" viewBox="0 0 361 84" fill="none" xmlns="http://www.w3.org/2000/svg">
<path d="M14.7499 9.96387H12.3907V34.997H14.7499V9.96387Z" fill="#004D30"/>
<path d="M6.31508 19.323C5.68812 21.6564 3.50346 20.9454 3.50346 20.9454C3.50346 20.9454 2.79248 18.7607 5.1258 18.1337C2.90236 18.7284 2.28186 16.6471 2.28186 16.6471C2.28186 16.6471 3.77493 14.721 5.55885 16.5114C3.86542 14.818 5.533 13.2732 5.533 13.2732C5.533 13.2732 7.81462 13.7256 7.18119 16.0784C7.80815 13.745 9.99281 14.456 9.99281 14.456C9.99281 14.456 10.7038 16.6407 8.37048 17.2676C10.7426 16.6342 11.1692 18.9417 11.1692 18.9417C11.1692 18.9417 9.61793 20.5705 7.93742 18.89C9.70842 20.661 7.82754 22.1605 7.82754 22.1605C7.82754 22.1605 5.71398 21.5659 6.31508 19.323Z" fill="#7BABFF"/>
<path d="M6.74812 19.0258C7.47634 19.0258 8.06667 18.4354 8.06667 17.7072C8.06667 16.979 7.47634 16.3887 6.74812 16.3887C6.0199 16.3887 5.42957 16.979 5.42957 17.7072C5.42957 18.4354 6.0199 19.0258 6.74812 19.0258Z" fill="#466DC6"/>
<path d="M21.0776 19.323C21.7046 21.6564 23.8892 20.9454 23.8892 20.9454C23.8892 20.9454 24.6002 18.7607 22.2669 18.1337C24.4903 18.7284 25.1108 16.6471 25.1108 16.6471C25.1108 16.6471 23.6178 14.721 21.8338 16.5114C23.5273 14.818 21.8597 13.2732 21.8597 13.2732C21.8597 13.2732 19.5781 13.7256 20.2115 16.0784C19.5845 13.745 17.3999 14.456 17.3999 14.456C17.3999 14.456 16.6889 16.6407 19.0222 17.2676C16.6501 16.6342 16.2235 18.9417 16.2235 18.9417C16.2235 18.9417 17.7748 20.5705 19.4553 18.89C17.6843 20.661 19.5651 22.1605 19.5651 22.1605C19.5651 22.1605 21.6787 21.5659 21.0776 19.323Z" fill="#7BABFF"/>
<path d="M20.6381 19.0258C21.3664 19.0258 21.9567 18.4354 21.9567 17.7072C21.9567 16.979 21.3664 16.3887 20.6381 16.3887C19.9099 16.3887 19.3196 16.979 19.3196 17.7072C19.3196 18.4354 19.9099 19.0258 20.6381 19.0258Z" fill="#466DC6"/>
<path d="M14.4074 11.0434C15.616 13.1375 13.5671 14.1782 13.5671 14.1782C13.5671 14.1782 11.5182 13.1311 12.7269 11.0434C11.5764 13.0406 9.66317 12.0064 9.66317 12.0064C9.66317 12.0064 9.35938 9.58908 11.8866 9.58908C9.49511 9.58908 9.57268 7.32039 9.57268 7.32039C9.57268 7.32039 11.5053 6.02769 12.7269 8.13479C11.5182 6.04062 13.5671 5 13.5671 5C13.5671 5 15.616 6.04708 14.4074 8.13479C15.6354 6.0083 17.568 7.33978 17.568 7.33978C17.568 7.33978 17.6197 9.58908 15.2476 9.58908C17.7555 9.58908 17.484 11.9806 17.484 11.9806C17.484 11.9806 15.5708 13.0535 14.4074 11.0434Z" fill="#7BABFF"/>
<path d="M13.5736 10.9076C14.3018 10.9076 14.8921 10.3173 14.8921 9.58906C14.8921 8.86084 14.3018 8.27051 13.5736 8.27051C12.8453 8.27051 12.255 8.86084 12.255 9.58906C12.255 10.3173 12.8453 10.9076 13.5736 10.9076Z" fill="#466DC6"/>
<path d="M14.4074 27.299C15.616 29.3932 13.5671 30.4338 13.5671 30.4338C13.5671 30.4338 11.5182 29.3867 12.7269 27.299C11.5764 29.2962 9.66317 28.262 9.66317 28.262C9.66317 28.262 9.35938 25.8447 11.8866 25.8447C9.49511 25.8447 9.57268 23.576 9.57268 23.576C9.57268 23.576 11.5053 22.2833 12.7269 24.3904C11.5182 22.2962 13.5671 21.2556 13.5671 21.2556C13.5671 21.2556 15.616 22.3027 14.4074 24.3904C15.6354 22.2639 17.568 23.5954 17.568 23.5954C17.568 23.5954 17.6197 25.8447 15.2476 25.8447C17.7555 25.8447 17.484 28.2362 17.484 28.2362C17.484 28.2362 15.5708 29.3091 14.4074 27.299Z" fill="#7BABFF"/>
<path d="M13.5736 27.1632C14.3018 27.1632 14.8921 26.5729 14.8921 25.8447C14.8921 25.1165 14.3018 24.5261 13.5736 24.5261C12.8453 24.5261 12.255 25.1165 12.255 25.8447C12.255 26.5729 12.8453 27.1632 13.5736 27.1632Z" fill="#466DC6"/>
<path d="M22.9779 34.5317C24.6455 33.5686 26.7074 28.359 26.7074 28.359C26.7074 28.359 21.1617 27.5382 19.4941 28.5012C17.8265 29.4643 15.7646 34.6739 15.7646 34.6739C15.7646 34.6739 21.3103 35.4947 22.9779 34.5317Z" fill="#004D30"/>
<path d="M4.16267 34.5317C5.83025 35.4947 11.3759 34.6739 11.3759 34.6739C11.3759 34.6739 9.31407 29.4643 7.64649 28.5012C5.97891 27.5382 0.433228 28.359 0.433228 28.359C0.433228 28.359 2.49508 33.5686 4.16267 34.5317Z" fill="#004D30"/>
<path d="M349.696 8.86743H347.51V29.9973H349.696V8.86743Z" fill="#004D30"/>
<path d="M357.324 29.5663C358.868 28.6741 360.778 23.8482 360.778 23.8482C360.778 23.8482 355.641 23.0878 354.096 23.9799C352.552 24.8721 350.642 29.698 350.642 29.698C350.642 29.698 355.779 30.4584 357.324 29.5663Z" fill="#004D30"/>
<path d="M354.653 20.4234C355.593 19.8785 356.761 16.9327 356.761 16.9327C356.761 16.9327 353.623 16.4716 352.683 17.0105C351.743 17.5494 350.576 20.5012 350.576 20.5012C350.576 20.5012 353.713 20.9623 354.653 20.4234Z" fill="#7BABFF"/>
<path d="M354.653 14.6394C355.593 14.0946 356.761 11.1487 356.761 11.1487C356.761 11.1487 353.623 10.6877 352.683 11.2266C351.743 11.7655 350.576 14.7173 350.576 14.7173C350.576 14.7173 353.713 15.1783 354.653 14.6394Z" fill="#7BABFF"/>
<path d="M354.653 8.85551C355.593 8.31065 356.761 5.36481 356.761 5.36481C356.761 5.36481 353.623 4.90377 352.683 5.44264C351.743 5.98151 350.576 8.93335 350.576 8.93335C350.576 8.93335 353.713 9.39439 354.653 8.85551Z" fill="#7BABFF"/>
<path d="M339.888 29.5663C341.433 30.4584 346.57 29.698 346.57 29.698C346.57 29.698 344.66 24.8721 343.115 23.9799C341.57 23.0878 336.433 23.8482 336.433 23.8482C336.433 23.8482 338.343 28.6741 339.888 29.5663Z" fill="#004D30"/>
<path d="M342.558 20.4234C341.618 19.8785 340.451 16.9327 340.451 16.9327C340.451 16.9327 343.588 16.4716 344.528 17.0105C345.468 17.5494 346.636 20.5012 346.636 20.5012C346.636 20.5012 343.498 20.9623 342.558 20.4234Z" fill="#7BABFF"/>
<path d="M342.558 14.6394C341.618 14.0946 340.451 11.1487 340.451 11.1487C340.451 11.1487 343.588 10.6877 344.528 11.2266C345.468 11.7655 346.636 14.7173 346.636 14.7173C346.636 14.7173 343.498 15.1783 342.558 14.6394Z" fill="#7BABFF"/>
<path d="M342.558 8.85551C341.618 8.31065 340.451 5.36481 340.451 5.36481C340.451 5.36481 343.588 4.90377 344.528 5.44264C345.468 5.98151 346.636 8.93335 346.636 8.93335C346.636 8.93335 343.498 9.39439 342.558 8.85551Z" fill="#7BABFF"/>
<path d="M350.576 3.57453C350.576 4.66425 348.606 7.14906 348.606 7.14906C348.606 7.14906 346.636 4.66425 346.636 3.57453C346.636 2.48481 348.606 0 348.606 0C348.606 0 350.576 2.48481 350.576 3.57453Z" fill="#7BABFF"/>
<path d="M183.399 18.7885C183.366 18.743 183.334 18.704 183.295 18.665C196.887 3.0569 168.519 3.0894 182.313 18.7755C182.28 18.8145 182.254 18.8536 182.228 18.8991C166.445 4.99489 166.484 33.7593 182.345 19.647C182.371 19.6795 182.404 19.699 182.443 19.725C168.298 35.6128 197.147 35.6388 183.145 19.8096C183.184 19.7901 183.223 19.7641 183.256 19.7315C198.988 33.6162 199.033 5.1705 183.405 18.7951L183.399 18.7885Z" fill="#E9B219"/>
<path d="M181.266 19.3089C182.038 19.3089 182.664 18.6829 182.664 17.9107C182.664 17.1384 182.038 16.5125 181.266 16.5125C180.494 16.5125 179.868 17.1384 179.868 17.9107C179.868 18.6829 180.494 19.3089 181.266 19.3089Z" fill="#AD6F0B"/>
<path d="M184.544 19.4195C185.316 19.4195 185.942 18.7935 185.942 18.0213C185.942 17.2491 185.316 16.623 184.544 16.623C183.771 16.623 183.145 17.2491 183.145 18.0213C183.145 18.7935 183.771 19.4195 184.544 19.4195Z" fill="#AD6F0B"/>
<path d="M182.755 22.1248C183.527 22.1248 184.153 21.4988 184.153 20.7266C184.153 19.9544 183.527 19.3284 182.755 19.3284C181.983 19.3284 181.357 19.9544 181.357 20.7266C181.357 21.4988 181.983 22.1248 182.755 22.1248Z" fill="#AD6F0B"/>
<path d="M195.417 10.9716C194.051 12.3373 188.446 12.9876 188.446 12.9876C188.446 12.9876 189.096 7.38174 190.462 6.01603C191.827 4.65032 197.433 4 197.433 4C197.433 4 196.783 9.60588 195.417 10.9716Z" fill="#004D30"/>
<path d="M169.449 10.9716C170.815 12.3373 176.421 12.9876 176.421 12.9876C176.421 12.9876 175.771 7.38174 174.405 6.01603C173.039 4.65032 167.433 4 167.433 4C167.433 4 168.084 9.60588 169.449 10.9716Z" fill="#004D30"/>
<path d="M195.417 27.0285C194.051 25.6628 188.446 25.0125 188.446 25.0125C188.446 25.0125 189.096 30.6183 190.462 31.984C191.827 33.3497 197.433 34.0001 197.433 34.0001C197.433 34.0001 196.783 28.3942 195.417 27.0285Z" fill="#004D30"/>
<path d="M169.449 27.0285C170.815 25.6628 176.421 25.0125 176.421 25.0125C176.421 25.0125 175.771 30.6183 174.405 31.984C173.039 33.3497 167.433 34.0001 167.433 34.0001C167.433 34.0001 168.084 28.3942 169.449 27.0285Z" fill="#004D30"/>
<path d="M99.646 66.7478H97.3402V84H99.646V66.7478Z" fill="#004D30"/>
<path d="M98.4963 59.9821C98.4963 51.0939 91.6358 52.7806 95.8304 60.6391C91.6358 52.7806 86.3483 57.4679 93.771 62.4584C86.3483 57.4679 83.8404 64.0693 92.7982 65.0295C83.8404 64.0756 84.6933 71.0877 93.1267 67.7586C84.6933 71.0877 88.7047 76.9058 94.687 70.0201C88.7047 76.9058 94.9586 80.1844 97.1191 71.2962C94.9586 80.1844 102.028 80.1844 99.8671 71.2962C102.028 80.1844 108.282 76.9058 102.299 70.0201C108.282 76.9058 112.293 71.0877 103.86 67.7586C112.293 71.0877 113.146 64.0756 104.188 65.0295C113.146 64.0756 110.638 57.4679 103.215 62.4584C110.638 57.4679 105.35 52.7806 101.156 60.6391C105.35 52.7806 98.4899 51.0939 98.4899 59.9821H98.4963Z" fill="#FF5319"/>
<path d="M98.4963 69.5335C100.461 69.5335 102.053 67.9412 102.053 65.977C102.053 64.0127 100.461 62.4204 98.4963 62.4204C96.532 62.4204 94.9397 64.0127 94.9397 65.977C94.9397 67.9412 96.532 69.5335 98.4963 69.5335Z" fill="#D13819"/>
<path d="M262.786 67.746C255.337 76.7368 259.543 80.2881 262.697 81.945C263.159 82.189 263.718 82.1954 264.186 81.9578C267.468 80.3202 271.552 76.8267 263.955 67.7395C263.987 67.6882 262.741 67.6946 262.786 67.7395V67.746Z" fill="#E851B8"/>
<path d="M263.454 66.0762C264.912 54.491 259.46 53.7524 255.908 54.0478C255.388 54.0928 254.913 54.3818 254.643 54.8313C252.755 57.9781 251.182 63.1157 262.465 66.7056C262.465 66.7634 263.512 66.0891 263.448 66.0762H263.454Z" fill="#E851B8"/>
<path d="M262.574 66.667C252.049 61.6193 249.621 66.5514 248.774 70.0129C248.652 70.5202 248.774 71.0597 249.12 71.4578C251.503 74.245 255.883 77.3596 262.857 67.7973C262.915 67.8166 262.607 66.6092 262.574 66.667Z" fill="#E851B8"/>
<path d="M264.251 66.667C274.776 61.6193 277.204 66.5514 278.051 70.0129C278.173 70.5202 278.051 71.0597 277.705 71.4578C275.322 74.245 270.942 77.3596 263.968 67.7973C263.91 67.8166 264.218 66.6092 264.251 66.667Z" fill="#E851B8"/>
<path d="M263.422 66.0762C261.964 54.491 267.417 53.7524 270.968 54.0478C271.488 54.0928 271.963 54.3818 272.233 54.8313C274.121 57.9781 275.695 63.1157 264.411 66.7056C264.411 66.7634 263.364 66.0891 263.429 66.0762H263.422Z" fill="#E851B8"/>
<path d="M263.441 64.7854L261.431 66.2496L262.195 68.6193H264.687L265.458 66.2496L263.441 64.7854Z" fill="#BA2F8B"/>
<path d="M263.454 71.4642C264.114 71.4642 264.649 70.9294 264.649 70.2697C264.649 69.61 264.114 69.0752 263.454 69.0752C262.795 69.0752 262.26 69.61 262.26 70.2697C262.26 70.9294 262.795 71.4642 263.454 71.4642Z" fill="#BA2F8B"/>
<path d="M260.269 69.1138C260.929 69.1138 261.463 68.5791 261.463 67.9194C261.463 67.2597 260.929 66.7249 260.269 66.7249C259.609 66.7249 259.074 67.2597 259.074 67.9194C259.074 68.5791 259.609 69.1138 260.269 69.1138Z" fill="#BA2F8B"/>
<path d="M266.62 69.1138C267.28 69.1138 267.815 68.5791 267.815 67.9194C267.815 67.2597 267.28 66.7249 266.62 66.7249C265.961 66.7249 265.426 67.2597 265.426 67.9194C265.426 68.5791 265.961 69.1138 266.62 69.1138Z" fill="#BA2F8B"/>
<path d="M261.508 65.389C262.168 65.389 262.703 64.8542 262.703 64.1945C262.703 63.5348 262.168 63 261.508 63C260.849 63 260.314 63.5348 260.314 64.1945C260.314 64.8542 260.849 65.389 261.508 65.389Z" fill="#BA2F8B"/>
<path d="M265.426 65.389C266.086 65.389 266.62 64.8542 266.62 64.1945C266.62 63.5348 266.086 63 265.426 63C264.766 63 264.231 63.5348 264.231 64.1945C264.231 64.8542 264.766 65.389 265.426 65.389Z" fill="#BA2F8B"/>
<path d="M250.424 77.1156C251.773 75.767 257.308 75.1248 257.308 75.1248C257.308 75.1248 256.666 80.6605 255.318 82.0091C253.969 83.3577 248.433 84 248.433 84C248.433 84 249.075 78.4642 250.424 77.1156Z" fill="#004D30"/>
<path d="M276.202 77.1156C274.853 75.767 269.318 75.1248 269.318 75.1248C269.318 75.1248 269.96 80.6605 271.308 82.0091C272.657 83.3577 278.193 84 278.193 84C278.193 84 277.55 78.4642 276.202 77.1156Z" fill="#004D30"/>
</svg>
