<svg width="311" height="25" viewBox="0 0 311 25" fill="none" xmlns="http://www.w3.org/2000/svg">
<path d="M298.061 11.4549C291.853 18.9473 295.359 21.9067 297.986 23.2874C298.372 23.4908 298.837 23.4961 299.228 23.2981C301.963 21.9335 305.366 19.0222 299.035 11.4496C299.062 11.4068 298.024 11.4121 298.061 11.4496V11.4549Z" fill="#E851B8"/>
<path d="M298.618 10.0635C299.833 0.409125 295.289 -0.206321 292.33 0.039855C291.896 0.0773166 291.5 0.318142 291.275 0.692758C289.702 3.31507 288.391 7.59639 297.794 10.588C297.794 10.6361 298.666 10.0742 298.612 10.0635H298.618Z" fill="#E851B8"/>
<path d="M297.885 10.5558C289.113 6.3494 287.09 10.4595 286.384 13.344C286.282 13.7668 286.384 14.2164 286.673 14.5482C288.658 16.8708 292.308 19.4663 298.12 11.4977C298.168 11.5138 297.911 10.5076 297.885 10.5558Z" fill="#E851B8"/>
<path d="M299.281 10.5558C308.053 6.3494 310.076 10.4595 310.782 13.344C310.884 13.7668 310.782 14.2164 310.493 14.5482C308.508 16.8708 304.858 19.4663 299.046 11.4977C298.998 11.5138 299.255 10.5076 299.281 10.5558Z" fill="#E851B8"/>
<path d="M298.591 10.0635C297.376 0.409125 301.92 -0.206321 304.879 0.039855C305.313 0.0773166 305.709 0.318142 305.933 0.692758C307.507 3.31507 308.818 7.59639 299.415 10.588C299.415 10.6361 298.543 10.0742 298.596 10.0635H298.591Z" fill="#E851B8"/>
<path d="M298.607 8.98779L296.932 10.208L297.569 12.1827H299.645L300.287 10.208L298.607 8.98779Z" fill="#BA2F8B"/>
<path d="M298.618 14.5536C299.167 14.5536 299.613 14.1079 299.613 13.5582C299.613 13.0084 299.167 12.5627 298.618 12.5627C298.068 12.5627 297.622 13.0084 297.622 13.5582C297.622 14.1079 298.068 14.5536 298.618 14.5536Z" fill="#BA2F8B"/>
<path d="M295.963 12.5948C296.513 12.5948 296.959 12.1492 296.959 11.5994C296.959 11.0497 296.513 10.604 295.963 10.604C295.414 10.604 294.968 11.0497 294.968 11.5994C294.968 12.1492 295.414 12.5948 295.963 12.5948Z" fill="#BA2F8B"/>
<path d="M301.256 12.5948C301.806 12.5948 302.252 12.1492 302.252 11.5994C302.252 11.0497 301.806 10.604 301.256 10.604C300.706 10.604 300.261 11.0497 300.261 11.5994C300.261 12.1492 300.706 12.5948 301.256 12.5948Z" fill="#BA2F8B"/>
<path d="M296.996 9.49082C297.546 9.49082 297.992 9.04515 297.992 8.4954C297.992 7.94565 297.546 7.5 296.996 7.5C296.447 7.5 296.001 7.94565 296.001 8.4954C296.001 9.04515 296.447 9.49082 296.996 9.49082Z" fill="#BA2F8B"/>
<path d="M300.261 9.49082C300.81 9.49082 301.256 9.04515 301.256 8.4954C301.256 7.94565 300.81 7.5 300.261 7.5C299.711 7.5 299.265 7.94565 299.265 8.4954C299.265 9.04515 299.711 9.49082 300.261 9.49082Z" fill="#BA2F8B"/>
<path d="M287.759 19.263C288.883 18.1392 293.496 17.604 293.496 17.604C293.496 17.604 292.961 22.2171 291.837 23.341C290.713 24.4648 286.1 25 286.1 25C286.1 25 286.635 20.3869 287.759 19.263Z" fill="#004D30"/>
<path d="M309.241 19.263C308.117 18.1392 303.504 17.604 303.504 17.604C303.504 17.604 304.039 22.2171 305.163 23.341C306.287 24.4648 310.9 25 310.9 25C310.9 25 310.365 20.3869 309.241 19.263Z" fill="#004D30"/>
<path d="M201.405 12.3237C201.378 12.2858 201.351 12.2533 201.318 12.2207C212.645 -0.786001 189.005 -0.758913 200.5 12.3129C200.473 12.3454 200.451 12.3779 200.429 12.4158C187.276 0.828995 187.309 24.7993 200.527 13.0391C200.549 13.0662 200.576 13.0824 200.608 13.1041C188.821 26.3439 212.862 26.3656 201.194 13.1746C201.226 13.1583 201.259 13.1366 201.286 13.1095C214.395 24.6801 214.433 0.975334 201.41 12.3291L201.405 12.3237Z" fill="#E9B219"/>
<path d="M199.627 12.7574C200.271 12.7574 200.793 12.2357 200.793 11.5922C200.793 10.9487 200.271 10.427 199.627 10.427C198.984 10.427 198.462 10.9487 198.462 11.5922C198.462 12.2357 198.984 12.7574 199.627 12.7574Z" fill="#AD6F0B"/>
<path d="M202.359 12.8497C203.002 12.8497 203.524 12.328 203.524 11.6845C203.524 11.041 203.002 10.5193 202.359 10.5193C201.715 10.5193 201.194 11.041 201.194 11.6845C201.194 12.328 201.715 12.8497 202.359 12.8497Z" fill="#AD6F0B"/>
<path d="M200.869 15.1041C201.512 15.1041 202.034 14.5824 202.034 13.9389C202.034 13.2954 201.512 12.7737 200.869 12.7737C200.225 12.7737 199.703 13.2954 199.703 13.9389C199.703 14.5824 200.225 15.1041 200.869 15.1041Z" fill="#AD6F0B"/>
<path d="M211.42 5.80966C210.282 6.94775 205.61 7.48968 205.61 7.48968C205.61 7.48968 206.152 2.81811 207.291 1.68002C208.429 0.541934 213.1 0 213.1 0C213.1 0 212.558 4.67157 211.42 5.80966Z" fill="#004D30"/>
<path d="M189.78 5.80966C190.918 6.94775 195.59 7.48968 195.59 7.48968C195.59 7.48968 195.048 2.81811 193.91 1.68002C192.772 0.541934 188.1 0 188.1 0C188.1 0 188.642 4.67157 189.78 5.80966Z" fill="#004D30"/>
<path d="M211.42 19.1903C210.282 18.0522 205.61 17.5103 205.61 17.5103C205.61 17.5103 206.152 22.1818 207.291 23.3199C208.429 24.458 213.1 24.9999 213.1 24.9999C213.1 24.9999 212.558 20.3284 211.42 19.1903Z" fill="#004D30"/>
<path d="M189.78 19.1903C190.918 18.0522 195.59 17.5103 195.59 17.5103C195.59 17.5103 195.048 22.1818 193.91 23.3199C192.772 24.458 188.1 24.9999 188.1 24.9999C188.1 24.9999 188.642 20.3284 189.78 19.1903Z" fill="#004D30"/>
<path d="M106.111 10.623H104.189V24.9999H106.111V10.623Z" fill="#004D30"/>
<path d="M105.153 4.9851C105.153 -2.42178 99.4357 -1.0162 102.931 5.5326C99.4357 -1.0162 95.0295 2.8899 101.215 7.0487C95.0295 2.8899 92.9396 8.39111 100.404 9.19128C92.9396 8.39637 93.6502 14.2398 100.678 11.4655C93.6502 14.2398 96.9931 19.0882 101.978 13.3501C96.9931 19.0882 102.205 21.8204 104.005 14.4135C102.205 21.8204 108.096 21.8204 106.295 14.4135C108.096 21.8204 113.307 19.0882 108.322 13.3501C113.307 19.0882 116.65 14.2398 109.622 11.4655C116.65 14.2398 117.361 8.39637 109.896 9.19128C117.361 8.39637 115.271 2.8899 109.085 7.0487C115.271 2.8899 110.865 -1.0162 107.369 5.5326C110.865 -1.0162 105.147 -2.42178 105.147 4.9851H105.153Z" fill="#FF5319"/>
<path d="M105.153 12.9447C106.79 12.9447 108.117 11.6178 108.117 9.9809C108.117 8.34403 106.79 7.01709 105.153 7.01709C103.516 7.01709 102.189 8.34403 102.189 9.9809C102.189 11.6178 103.516 12.9447 105.153 12.9447Z" fill="#D13819"/>
<path d="M12.0308 4.13647H10.0648V24.9974H12.0308V4.13647Z" fill="#004D30"/>
<path d="M5.00177 11.9358C4.4793 13.8803 2.65875 13.2878 2.65875 13.2878C2.65875 13.2878 2.06626 11.4672 4.0107 10.9447C2.15783 11.4403 1.64075 9.70591 1.64075 9.70591C1.64075 9.70591 2.88497 8.10081 4.37158 9.5928C2.96038 8.18161 4.35003 6.89429 4.35003 6.89429C4.35003 6.89429 6.25138 7.27133 5.72352 9.23192C6.24599 7.28749 8.06654 7.87997 8.06654 7.87997C8.06654 7.87997 8.65903 9.70053 6.71459 10.223C8.69135 9.69514 9.04684 11.618 9.04684 11.618C9.04684 11.618 7.75414 12.9754 6.35371 11.5749C7.82955 13.0508 6.26215 14.3004 6.26215 14.3004C6.26215 14.3004 4.50085 13.8048 5.00177 11.9358Z" fill="#7BABFF"/>
<path d="M5.36259 11.6881C5.96944 11.6881 6.46138 11.1961 6.46138 10.5893C6.46138 9.98242 5.96944 9.49048 5.36259 9.49048C4.75574 9.49048 4.26379 9.98242 4.26379 10.5893C4.26379 11.1961 4.75574 11.6881 5.36259 11.6881Z" fill="#466DC6"/>
<path d="M17.3039 11.9358C17.8263 13.8803 19.6469 13.2878 19.6469 13.2878C19.6469 13.2878 20.2394 11.4672 18.2949 10.9447C20.1478 11.4403 20.6649 9.70591 20.6649 9.70591C20.6649 9.70591 19.4207 8.10081 17.9341 9.5928C19.3452 8.18161 17.9556 6.89429 17.9556 6.89429C17.9556 6.89429 16.0543 7.27133 16.5821 9.23192C16.0596 7.28749 14.2391 7.87997 14.2391 7.87997C14.2391 7.87997 13.6466 9.70053 15.591 10.223C13.6143 9.69514 13.2588 11.618 13.2588 11.618C13.2588 11.618 14.5515 12.9754 15.9519 11.5749C14.4761 13.0508 16.0435 14.3004 16.0435 14.3004C16.0435 14.3004 17.8048 13.8048 17.3039 11.9358Z" fill="#7BABFF"/>
<path d="M16.9377 11.6881C17.5445 11.6881 18.0365 11.1961 18.0365 10.5893C18.0365 9.98242 17.5445 9.49048 16.9377 9.49048C16.3308 9.49048 15.8389 9.98242 15.8389 10.5893C15.8389 11.1961 16.3308 11.6881 16.9377 11.6881Z" fill="#466DC6"/>
<path d="M11.7453 5.03614C12.7526 6.78128 11.0451 7.64847 11.0451 7.64847C11.0451 7.64847 9.33769 6.77589 10.3449 5.03614C9.38616 6.70049 7.79183 5.83869 7.79183 5.83869C7.79183 5.83869 7.53868 3.82423 9.6447 3.82423C7.65179 3.82423 7.71643 1.93366 7.71643 1.93366C7.71643 1.93366 9.32692 0.856408 10.3449 2.61233C9.33769 0.867181 11.0451 0 11.0451 0C11.0451 0 12.7526 0.872567 11.7453 2.61233C12.7687 0.84025 14.3792 1.94982 14.3792 1.94982C14.3792 1.94982 14.4223 3.82423 12.4456 3.82423C14.5354 3.82423 14.3092 5.81714 14.3092 5.81714C14.3092 5.81714 12.7149 6.71126 11.7453 5.03614Z" fill="#7BABFF"/>
<path d="M11.0505 4.92293C11.6573 4.92293 12.1493 4.43098 12.1493 3.82413C12.1493 3.21729 11.6573 2.72534 11.0505 2.72534C10.4436 2.72534 9.95166 3.21729 9.95166 3.82413C9.95166 4.43098 10.4436 4.92293 11.0505 4.92293Z" fill="#466DC6"/>
<path d="M11.7453 18.5825C12.7526 20.3277 11.0451 21.1949 11.0451 21.1949C11.0451 21.1949 9.33769 20.3223 10.3449 18.5825C9.38616 20.2469 7.79183 19.3851 7.79183 19.3851C7.79183 19.3851 7.53868 17.3706 9.6447 17.3706C7.65179 17.3706 7.71643 15.48 7.71643 15.48C7.71643 15.48 9.32692 14.4028 10.3449 16.1587C9.33769 14.4136 11.0451 13.5464 11.0451 13.5464C11.0451 13.5464 12.7526 14.419 11.7453 16.1587C12.7687 14.3866 14.3792 15.4962 14.3792 15.4962C14.3792 15.4962 14.4223 17.3706 12.4456 17.3706C14.5354 17.3706 14.3092 19.3635 14.3092 19.3635C14.3092 19.3635 12.7149 20.2577 11.7453 18.5825Z" fill="#7BABFF"/>
<path d="M11.0505 18.4693C11.6573 18.4693 12.1493 17.9774 12.1493 17.3705C12.1493 16.7637 11.6573 16.2717 11.0505 16.2717C10.4436 16.2717 9.95166 16.7637 9.95166 17.3705C9.95166 17.9774 10.4436 18.4693 11.0505 18.4693Z" fill="#466DC6"/>
<path d="M18.8875 24.6097C20.2772 23.8071 21.9954 19.4658 21.9954 19.4658C21.9954 19.4658 17.374 18.7818 15.9843 19.5843C14.5947 20.3869 12.8765 24.7282 12.8765 24.7282C12.8765 24.7282 17.4979 25.4122 18.8875 24.6097Z" fill="#004D30"/>
<path d="M3.20808 24.6097C4.59774 25.4122 9.21914 24.7282 9.21914 24.7282C9.21914 24.7282 7.50092 20.3869 6.11127 19.5843C4.72162 18.7818 0.10022 19.4658 0.10022 19.4658C0.10022 19.4658 1.81843 23.8071 3.20808 24.6097Z" fill="#004D30"/>
</svg>
