<svg width="311" height="25" viewBox="0 0 311 25" fill="none" xmlns="http://www.w3.org/2000/svg">
<path d="M197.147 21.3468C197.895 20.5987 198.25 17.5283 198.25 17.5283C198.25 17.5283 195.179 17.883 194.431 18.6311C193.683 19.3793 193.328 22.4496 193.328 22.4496C193.328 22.4496 196.399 22.095 197.147 21.3468Z" fill="#004D30"/>
<path d="M211.255 21.3468C210.507 20.5987 210.152 17.5283 210.152 17.5283C210.152 17.5283 213.223 17.883 213.971 18.6311C214.719 19.3793 215.074 22.4496 215.074 22.4496C215.074 22.4496 212.003 22.095 211.255 21.3468Z" fill="#004D30"/>
<path d="M206.12 3.47843C206.12 4.5375 204.201 6.95686 204.201 6.95686C204.201 6.95686 202.282 4.5375 202.282 3.47843C202.282 2.41936 204.201 0 204.201 0C204.201 0 206.12 2.41936 206.12 3.47843Z" fill="#004D30"/>
<path d="M199.678 9.26462C201.033 6.91814 198.735 5.74731 198.735 5.74731C198.735 5.74731 196.442 6.91814 197.793 9.26462C196.501 7.02502 194.363 8.18611 194.363 8.18611C194.363 8.18611 194.023 10.8921 196.855 10.8921C194.174 10.8921 194.266 13.4378 194.266 13.4378C194.266 13.4378 196.433 14.8903 197.798 12.5196C196.442 14.866 198.74 16.0369 198.74 16.0369C198.74 16.0369 201.033 14.866 199.683 12.5196C201.058 14.9049 203.229 13.4135 203.229 13.4135C203.229 13.4135 203.288 10.8872 200.625 10.8872C203.433 10.8872 203.132 8.20553 203.132 8.20553C203.132 8.20553 200.985 7.00072 199.683 9.25976L199.678 9.26462Z" fill="#FF5319"/>
<path d="M198.74 12.3737C199.556 12.3737 200.217 11.7125 200.217 10.8968C200.217 10.0811 199.556 9.41992 198.74 9.41992C197.925 9.41992 197.264 10.0811 197.264 10.8968C197.264 11.7125 197.925 12.3737 198.74 12.3737Z" fill="#D13819"/>
<path d="M210.716 9.12349C212.071 6.77701 209.773 5.6062 209.773 5.6062C209.773 5.6062 207.48 6.77701 208.831 9.12349C207.538 6.88389 205.401 8.04498 205.401 8.04498C205.401 8.04498 205.061 10.751 207.893 10.751C205.211 10.751 205.304 13.2966 205.304 13.2966C205.304 13.2966 207.47 14.7492 208.836 12.3784C207.48 14.7249 209.778 15.8957 209.778 15.8957C209.778 15.8957 212.071 14.7249 210.721 12.3784C212.095 14.7638 214.267 13.2723 214.267 13.2723C214.267 13.2723 214.325 10.7461 211.663 10.7461C214.471 10.7461 214.17 8.06442 214.17 8.06442C214.17 8.06442 212.023 6.85959 210.721 9.11863L210.716 9.12349Z" fill="#FF5319"/>
<path d="M209.783 12.2282C210.599 12.2282 211.26 11.5669 211.26 10.7513C211.26 9.93564 210.599 9.27441 209.783 9.27441C208.967 9.27441 208.306 9.93564 208.306 10.7513C208.306 11.5669 208.967 12.2282 209.783 12.2282Z" fill="#D13819"/>
<path d="M205.134 18.2277C206.489 15.8813 204.191 14.7104 204.191 14.7104C204.191 14.7104 201.898 15.8813 203.249 18.2277C201.957 15.9881 199.819 17.1492 199.819 17.1492C199.819 17.1492 199.479 19.8552 202.311 19.8552C199.63 19.8552 199.722 22.4009 199.722 22.4009C199.722 22.4009 201.889 23.8535 203.254 21.4827C201.898 23.8292 204.196 25 204.196 25C204.196 25 206.489 23.8292 205.139 21.4827C206.513 23.868 208.685 22.3766 208.685 22.3766C208.685 22.3766 208.743 19.8504 206.081 19.8504C208.889 19.8504 208.588 17.1687 208.588 17.1687C208.588 17.1687 206.441 15.9638 205.139 18.2229L205.134 18.2277Z" fill="#FF5319"/>
<path d="M204.201 21.3322C205.017 21.3322 205.678 20.671 205.678 19.8553C205.678 19.0396 205.017 18.3784 204.201 18.3784C203.385 18.3784 202.724 19.0396 202.724 19.8553C202.724 20.671 203.385 21.3322 204.201 21.3322Z" fill="#D13819"/>
<path d="M119.991 11.6114C119.991 11.6114 119.546 16.4852 118.231 17.0286C116.421 17.7729 110.798 14.7302 108.836 14.8497C110.542 13.8826 113.873 8.87292 115.737 8.53061C117.03 8.29154 119.986 11.6168 119.986 11.6168L119.991 11.6114Z" fill="#7BABFF"/>
<path d="M113.074 5.97683C113.319 7.91658 109.266 12.9099 108.836 14.8388C108.418 12.9099 104.348 7.89485 104.598 5.96053C104.767 4.66737 108.825 2.89062 108.825 2.89062C108.825 2.89062 112.911 4.6728 113.074 5.97683Z" fill="#7BABFF"/>
<path d="M117.22 19.9844C117.763 21.0547 115.731 24.5593 115.731 24.5593C115.731 24.5593 111.385 25.5102 110.477 24.5593C109.13 23.1521 109.548 16.7243 108.836 14.8389C110.369 16.1864 116.329 18.2239 117.22 19.9789V19.9844Z" fill="#7BABFF"/>
<path d="M108.836 14.8442C108.125 16.7188 108.706 23.1303 107.386 24.5701C106.5 25.5373 102.137 24.5701 102.137 24.5701C102.137 24.5701 100.094 21.0438 100.637 19.9571C101.496 18.2456 107.31 16.1863 108.836 14.8442Z" fill="#7BABFF"/>
<path d="M108.836 14.8443C106.891 14.7139 101.213 17.7349 99.4092 16.9905C98.0998 16.4526 97.6597 11.6114 97.6597 11.6114C97.6597 11.6114 100.637 8.26436 101.93 8.50887C103.789 8.86204 107.13 13.8771 108.831 14.8443H108.836Z" fill="#7BABFF"/>
<path d="M107.511 13.388C106.717 13.964 106.386 14.98 106.69 15.9146C106.994 16.8437 107.858 17.474 108.836 17.474C109.814 17.474 110.684 16.8437 110.983 15.9146C111.287 14.9855 110.955 13.964 110.162 13.388C109.369 12.8121 108.298 12.8121 107.511 13.388Z" fill="#466DC6"/>
<path d="M101.132 1.39098C100.192 0.450985 96.3285 0 96.3285 0C96.3285 0 96.774 3.85777 97.7195 4.80319C98.6649 5.74862 102.523 6.19416 102.523 6.19416C102.523 6.19416 102.077 2.3364 101.132 1.39098Z" fill="#004D30"/>
<path d="M116.058 1.52674C117.09 0.494385 121.328 0.00537109 121.328 0.00537109C121.328 0.00537109 120.839 4.23804 119.807 5.27584C118.774 6.30819 114.536 6.79721 114.536 6.79721C114.536 6.79721 115.025 2.56454 116.058 1.52674Z" fill="#004D30"/>
<path d="M299.538 8.63647H297.62V25H299.538V8.63647Z" fill="#004D30"/>
<path d="M306.23 20.7581C307.586 19.9748 309.263 15.7381 309.263 15.7381C309.263 15.7381 304.753 15.0705 303.396 15.8537C302.04 16.637 300.363 20.8737 300.363 20.8737C300.363 20.8737 304.873 21.5413 306.23 20.7581Z" fill="#004D30"/>
<path d="M290.928 20.7581C292.284 21.5413 296.794 20.8737 296.794 20.8737C296.794 20.8737 295.117 16.637 293.761 15.8537C292.405 15.0705 287.895 15.7381 287.895 15.7381C287.895 15.7381 289.572 19.9748 290.928 20.7581Z" fill="#004D30"/>
<path d="M292.978 6.53906C295.002 6.53906 299.627 9.72451 299.627 9.72451C299.627 9.72451 295.002 12.91 292.978 12.91C290.954 12.91 286.328 9.72451 286.328 9.72451C286.328 9.72451 290.954 6.53906 292.978 6.53906Z" fill="#E9B219"/>
<path d="M304.022 6.53906C306.046 6.53906 310.671 9.72451 310.671 9.72451C310.671 9.72451 306.046 12.91 304.022 12.91C301.998 12.91 297.372 9.72451 297.372 9.72451C297.372 9.72451 301.998 6.53906 304.022 6.53906Z" fill="#E9B219"/>
<path d="M302.703 2.04479C302.703 2.04479 301.783 2.41273 300.805 2.9121C300.027 1.57694 298.545 0 298.545 0C298.545 0 297.083 1.55066 296.3 2.88056C295.349 2.39171 294.46 2.04479 294.46 2.04479C294.46 2.04479 293.919 5.69806 294.555 6.79667C295.128 7.79016 297.987 8.99389 298.529 9.21466C298.529 9.24094 298.534 9.25146 298.534 9.25146C298.534 9.25146 298.55 9.24622 298.581 9.23571C298.608 9.24622 298.629 9.25146 298.629 9.25146C298.629 9.25146 298.629 9.23569 298.634 9.21466C299.175 8.99389 302.035 7.79016 302.608 6.79667C303.244 5.69806 302.703 2.04479 302.703 2.04479Z" fill="#C9831C"/>
<path d="M21.8557 24.6092C23.2362 23.8119 24.9432 19.499 24.9432 19.499C24.9432 19.499 20.352 18.8194 18.9715 19.6167C17.5909 20.414 15.8839 24.7269 15.8839 24.7269C15.8839 24.7269 20.4751 25.4065 21.8557 24.6092Z" fill="#004D30"/>
<path d="M3.41603 24.6092C4.7966 25.4065 9.38777 24.7269 9.38777 24.7269C9.38777 24.7269 7.6808 20.414 6.30024 19.6167C4.91967 18.8194 0.328491 19.499 0.328491 19.499C0.328491 19.499 2.03547 23.8119 3.41603 24.6092Z" fill="#004D30"/>
<path d="M13.615 10.3862H11.6619V24.9999H13.615V10.3862Z" fill="#004D30"/>
<path d="M14.589 5.55444C13.2619 6.88149 12.6359 12.3021 12.6359 12.3021C12.6359 12.3021 18.0618 11.676 19.3835 10.349C20.7106 9.02191 21.3366 3.60132 21.3366 3.60132C21.3366 3.60132 15.9107 4.22738 14.589 5.55444Z" fill="#BA2F8B"/>
<path d="M10.6827 5.55444C12.0097 6.88149 12.6358 12.3021 12.6358 12.3021C12.6358 12.3021 7.20988 11.676 5.88818 10.349C4.56113 9.02191 3.93506 3.60132 3.93506 3.60132C3.93506 3.60132 9.36099 4.22738 10.6827 5.55444Z" fill="#BA2F8B"/>
<path d="M16.0284 6.15368C16.0284 8.02654 12.6358 12.3074 12.6358 12.3074C12.6358 12.3074 9.24329 8.02654 9.24329 6.15368C9.24329 4.28082 12.6358 0 12.6358 0C12.6358 0 16.0284 4.28082 16.0284 6.15368Z" fill="#E851B8"/>
<path d="M6.48217 8.91479C8.35503 8.91479 12.6358 12.3073 12.6358 12.3073C12.6358 12.3073 8.35503 15.6999 6.48217 15.6999C4.60931 15.6999 0.328491 12.3073 0.328491 12.3073C0.328491 12.3073 4.60931 8.91479 6.48217 8.91479Z" fill="#E851B8"/>
<path d="M18.7895 8.91479C16.9167 8.91479 12.6359 12.3073 12.6359 12.3073C12.6359 12.3073 16.9167 15.6999 18.7895 15.6999C20.6624 15.6999 24.9432 12.3073 24.9432 12.3073C24.9432 12.3073 20.6624 8.91479 18.7895 8.91479Z" fill="#E851B8"/>
</svg>
