<svg width="366" height="82" viewBox="0 0 366 82" fill="none" xmlns="http://www.w3.org/2000/svg">
<path d="M268.179 64.2915H265.879V81.5001H268.179V64.2915Z" fill="#004D30"/>
<path d="M271.777 58.8535C271.777 61.0904 266.963 66.207 266.963 66.207C266.963 66.207 262.149 61.0904 262.149 58.8535C262.149 56.6166 266.963 51.5 266.963 51.5C266.963 51.5 271.777 56.6166 271.777 58.8535Z" fill="#BA2F8B"/>
<path d="M266.944 59.4521C268.065 61.3929 267.108 67.8453 267.108 67.8453C267.108 67.8453 261.04 65.4446 259.918 63.5038C258.796 61.563 259.754 55.1106 259.754 55.1106C259.754 55.1106 265.822 57.5114 266.944 59.4521Z" fill="#E851B8"/>
<path d="M267.12 59.4521C265.999 61.3929 266.956 67.8453 266.956 67.8453C266.956 67.8453 273.024 65.4446 274.146 63.5038C275.268 61.563 274.31 55.1106 274.31 55.1106C274.31 55.1106 268.242 57.5114 267.12 59.4521Z" fill="#E851B8"/>
<path d="M276.207 76.4149C277.832 75.476 279.842 70.3972 279.842 70.3972C279.842 70.3972 274.436 69.597 272.81 70.5359C271.184 71.4747 269.174 76.5535 269.174 76.5535C269.174 76.5535 274.581 77.3538 276.207 76.4149Z" fill="#004D30"/>
<path d="M257.857 76.4149C259.483 77.3538 264.89 76.5535 264.89 76.5535C264.89 76.5535 262.879 71.4747 261.254 70.5359C259.628 69.597 254.222 70.3972 254.222 70.3972C254.222 70.3972 256.232 75.476 257.857 76.4149Z" fill="#004D30"/>
<path d="M176.804 26.1161C177.702 25.2184 178.127 21.5339 178.127 21.5339C178.127 21.5339 174.443 21.9595 173.545 22.8573C172.647 23.7551 172.222 27.4395 172.222 27.4395C172.222 27.4395 175.906 27.0139 176.804 26.1161Z" fill="#004D30"/>
<path d="M193.733 26.1161C192.836 25.2184 192.41 21.5339 192.41 21.5339C192.41 21.5339 196.095 21.9595 196.992 22.8573C197.89 23.7551 198.316 27.4395 198.316 27.4395C198.316 27.4395 194.631 27.0139 193.733 26.1161Z" fill="#004D30"/>
<path d="M187.571 4.67412C187.571 5.94501 185.269 8.84823 185.269 8.84823C185.269 8.84823 182.966 5.94501 182.966 4.67412C182.966 3.40323 185.269 0.5 185.269 0.5C185.269 0.5 187.571 3.40323 187.571 4.67412Z" fill="#004D30"/>
<path d="M179.841 11.6175C181.468 8.80171 178.71 7.39673 178.71 7.39673C178.71 7.39673 175.958 8.80171 177.579 11.6175C176.028 8.92997 173.463 10.3233 173.463 10.3233C173.463 10.3233 173.055 13.5705 176.454 13.5705C173.236 13.5705 173.347 16.6253 173.347 16.6253C173.347 16.6253 175.947 18.3684 177.585 15.5234C175.958 18.3392 178.716 19.7442 178.716 19.7442C178.716 19.7442 181.468 18.3392 179.847 15.5234C181.497 18.3858 184.103 16.5961 184.103 16.5961C184.103 16.5961 184.173 13.5646 180.978 13.5646C184.348 13.5646 183.986 10.3466 183.986 10.3466C183.986 10.3466 181.409 8.90082 179.847 11.6117L179.841 11.6175Z" fill="#FF5319"/>
<path d="M178.716 15.3485C179.695 15.3485 180.488 14.555 180.488 13.5762C180.488 12.5974 179.695 11.804 178.716 11.804C177.737 11.804 176.944 12.5974 176.944 13.5762C176.944 14.555 177.737 15.3485 178.716 15.3485Z" fill="#D13819"/>
<path d="M193.086 11.4483C194.713 8.63251 191.955 7.22754 191.955 7.22754C191.955 7.22754 189.204 8.63251 190.824 11.4483C189.274 8.76076 186.709 10.1541 186.709 10.1541C186.709 10.1541 186.3 13.4013 189.699 13.4013C186.481 13.4013 186.592 16.4561 186.592 16.4561C186.592 16.4561 189.192 18.1991 190.83 15.3542C189.204 18.17 191.961 19.575 191.961 19.575C191.961 19.575 194.713 18.17 193.092 15.3542C194.742 18.2166 197.348 16.4269 197.348 16.4269C197.348 16.4269 197.418 13.3954 194.223 13.3954C197.593 13.3954 197.231 10.1774 197.231 10.1774C197.231 10.1774 194.655 8.73161 193.092 11.4425L193.086 11.4483Z" fill="#FF5319"/>
<path d="M191.967 15.1736C192.946 15.1736 193.739 14.3802 193.739 13.4014C193.739 12.4226 192.946 11.6292 191.967 11.6292C190.988 11.6292 190.195 12.4226 190.195 13.4014C190.195 14.3802 190.988 15.1736 191.967 15.1736Z" fill="#D13819"/>
<path d="M186.388 22.3733C188.014 19.5576 185.257 18.1526 185.257 18.1526C185.257 18.1526 182.505 19.5576 184.126 22.3733C182.575 19.6858 180.01 21.0791 180.01 21.0791C180.01 21.0791 179.602 24.3263 183.001 24.3263C179.783 24.3263 179.894 27.3811 179.894 27.3811C179.894 27.3811 182.494 29.1242 184.132 26.2793C182.505 29.0951 185.263 30.5 185.263 30.5C185.263 30.5 188.014 29.0951 186.394 26.2793C188.044 29.1417 190.65 27.352 190.65 27.352C190.65 27.352 190.719 24.3205 187.525 24.3205C190.894 24.3205 190.533 21.1024 190.533 21.1024C190.533 21.1024 187.956 19.6567 186.394 22.3675L186.388 22.3733Z" fill="#FF5319"/>
<path d="M185.269 26.0985C186.247 26.0985 187.041 25.305 187.041 24.3262C187.041 23.3474 186.247 22.554 185.269 22.554C184.29 22.554 183.496 23.3474 183.496 24.3262C183.496 25.305 184.29 26.0985 185.269 26.0985Z" fill="#D13819"/>
<path d="M114.617 65.4336C114.617 65.4336 114.082 71.2822 112.504 71.9342C110.333 72.8275 103.585 69.1762 101.231 69.3196C103.278 68.159 107.275 62.1475 109.512 61.7367C111.063 61.4498 114.61 65.4401 114.61 65.4401L114.617 65.4336Z" fill="#7BABFF"/>
<path d="M106.317 58.6722C106.61 60.9999 101.746 66.9919 101.231 69.3066C100.729 66.9919 95.8454 60.9738 96.1453 58.6526C96.3474 57.1008 101.218 54.9688 101.218 54.9688C101.218 54.9688 106.121 57.1074 106.317 58.6722Z" fill="#7BABFF"/>
<path d="M111.292 75.4812C111.944 76.7657 109.505 80.9712 109.505 80.9712C109.505 80.9712 104.289 82.1122 103.2 80.9712C101.583 79.2825 102.085 71.5691 101.231 69.3066C103.07 70.9236 110.222 73.3687 111.292 75.4747V75.4812Z" fill="#7BABFF"/>
<path d="M101.231 69.3132C100.377 71.5627 101.075 79.2565 99.4902 80.9843C98.4274 82.1449 93.1917 80.9843 93.1917 80.9843C93.1917 80.9843 90.7401 76.7527 91.3921 75.4487C92.4223 73.3949 99.3989 70.9237 101.231 69.3132Z" fill="#7BABFF"/>
<path d="M101.231 69.3132C98.8968 69.1567 92.0832 72.7819 89.9186 71.8886C88.3472 71.2431 87.8191 65.4337 87.8191 65.4337C87.8191 65.4337 91.3921 61.4172 92.9439 61.7106C95.1738 62.1344 99.1837 68.1526 101.225 69.3132H101.231Z" fill="#7BABFF"/>
<path d="M99.6402 67.5657C98.6883 68.2569 98.2905 69.4761 98.6557 70.5976C99.0208 71.7125 100.057 72.4689 101.231 72.4689C102.405 72.4689 103.448 71.7125 103.807 70.5976C104.172 69.4827 103.774 68.2569 102.822 67.5657C101.87 66.8746 100.586 66.8746 99.6402 67.5657Z" fill="#466DC6"/>
<path d="M91.9855 53.1692C90.8575 52.0412 86.2216 51.5 86.2216 51.5C86.2216 51.5 86.7563 56.1293 87.8908 57.2638C89.0253 58.3983 93.6546 58.933 93.6546 58.933C93.6546 58.933 93.12 54.3037 91.9855 53.1692Z" fill="#004D30"/>
<path d="M109.896 53.3322C111.135 52.0934 116.221 51.5066 116.221 51.5066C116.221 51.5066 115.634 56.5858 114.395 57.8311C113.156 59.07 108.071 59.6568 108.071 59.6568C108.071 59.6568 108.658 54.5776 109.896 53.3322Z" fill="#004D30"/>
<path d="M352.073 10.8638H349.771V30.5H352.073V10.8638Z" fill="#004D30"/>
<path d="M360.103 25.4096C361.731 24.4697 363.743 19.3856 363.743 19.3856C363.743 19.3856 358.331 18.5845 356.703 19.5244C355.076 20.4642 353.064 25.5484 353.064 25.5484C353.064 25.5484 358.476 26.3495 360.103 25.4096Z" fill="#004D30"/>
<path d="M341.741 25.4096C343.368 26.3495 348.781 25.5484 348.781 25.5484C348.781 25.5484 346.768 20.4642 345.141 19.5244C343.514 18.5845 338.101 19.3856 338.101 19.3856C338.101 19.3856 340.114 24.4697 341.741 25.4096Z" fill="#004D30"/>
<path d="M344.201 8.34692C346.63 8.34692 352.18 12.1695 352.18 12.1695C352.18 12.1695 346.63 15.992 344.201 15.992C341.773 15.992 336.222 12.1695 336.222 12.1695C336.222 12.1695 341.773 8.34692 344.201 8.34692Z" fill="#E9B219"/>
<path d="M357.454 8.34692C359.882 8.34692 365.433 12.1695 365.433 12.1695C365.433 12.1695 359.882 15.992 357.454 15.992C355.025 15.992 349.474 12.1695 349.474 12.1695C349.474 12.1695 355.025 8.34692 357.454 8.34692Z" fill="#E9B219"/>
<path d="M355.871 2.95375C355.871 2.95375 354.767 3.39528 353.593 3.99452C352.66 2.39233 350.881 0.5 350.881 0.5C350.881 0.5 349.127 2.3608 348.188 3.95667C347.046 3.37005 345.98 2.95375 345.98 2.95375C345.98 2.95375 345.33 7.33767 346.093 8.65601C346.781 9.84819 350.212 11.2927 350.862 11.5576C350.862 11.5891 350.868 11.6018 350.868 11.6018C350.868 11.6018 350.887 11.5955 350.925 11.5828C350.957 11.5955 350.982 11.6018 350.982 11.6018C350.982 11.6018 350.982 11.5828 350.988 11.5576C351.638 11.2927 355.069 9.84819 355.757 8.65601C356.52 7.33767 355.871 2.95375 355.871 2.95375Z" fill="#C9831C"/>
<path d="M26.0542 33.0312C27.7109 32.0744 29.7593 26.8989 29.7593 26.8989C29.7593 26.8989 24.2499 26.0834 22.5932 27.0402C20.9365 27.9969 18.8882 33.1724 18.8882 33.1724C18.8882 33.1724 24.3976 33.9879 26.0542 33.0312Z" fill="#004D30"/>
<path d="M3.9267 33.0312C5.58338 33.9879 11.0928 33.1724 11.0928 33.1724C11.0928 33.1724 9.04442 27.9969 7.38774 27.0402C5.73107 26.0834 0.221649 26.8989 0.221649 26.8989C0.221649 26.8989 2.27002 32.0744 3.9267 33.0312Z" fill="#004D30"/>
<path d="M16.1655 15.9636H13.8217V33.5H16.1655V15.9636Z" fill="#004D30"/>
<path d="M17.3342 10.1653C15.7417 11.7577 14.9904 18.2625 14.9904 18.2625C14.9904 18.2625 21.5016 17.5112 23.0876 15.9187C24.6801 14.3262 25.4314 7.82153 25.4314 7.82153C25.4314 7.82153 18.9202 8.57281 17.3342 10.1653Z" fill="#BA2F8B"/>
<path d="M12.6467 10.1653C14.2392 11.7577 14.9904 18.2625 14.9904 18.2625C14.9904 18.2625 8.47932 17.5112 6.89327 15.9187C5.30081 14.3262 4.54953 7.82153 4.54953 7.82153C4.54953 7.82153 11.0606 8.57281 12.6467 10.1653Z" fill="#BA2F8B"/>
<path d="M19.0615 10.8844C19.0615 13.1318 14.9905 18.2688 14.9905 18.2688C14.9905 18.2688 10.9194 13.1318 10.9194 10.8844C10.9194 8.63698 14.9905 3.5 14.9905 3.5C14.9905 3.5 19.0615 8.63698 19.0615 10.8844Z" fill="#E851B8"/>
<path d="M7.60606 14.1978C9.85349 14.1978 14.9905 18.2688 14.9905 18.2688C14.9905 18.2688 9.85349 22.3399 7.60606 22.3399C5.35863 22.3399 0.221649 18.2688 0.221649 18.2688C0.221649 18.2688 5.35863 14.1978 7.60606 14.1978Z" fill="#E851B8"/>
<path d="M22.3749 14.1978C20.1274 14.1978 14.9904 18.2688 14.9904 18.2688C14.9904 18.2688 20.1274 22.3399 22.3749 22.3399C24.6223 22.3399 29.7593 18.2688 29.7593 18.2688C29.7593 18.2688 24.6223 14.1978 22.3749 14.1978Z" fill="#E851B8"/>
</svg>
